<?xml version="1.0" encoding="utf-8"?>
<!-- Generator: Adobe Illustrator 24.0.1, SVG Export Plug-In . SVG Version: 6.00 Build 0)  -->
<svg version="1.1" id="Layer_1" xmlns="http://www.w3.org/2000/svg" xmlns:xlink="http://www.w3.org/1999/xlink" x="0px" y="0px"
	 viewBox="0 0 300 116" style="enable-background:new 0 0 300 116;" xml:space="preserve">
<style type="text/css">
	.st0{fill:#FFFFFF;}
</style>
<path class="st0" d="M17.4,111.7c0.1,0.1,0.3,0,0.3-0.1l-0.4-0.1L17.4,111.7z"/>
<path class="st0" d="M18.2,110.6c-0.2-0.3-0.6-0.4-0.9-0.3c0.4,0.2,0.2,0.2,0.7,0.5c0,0.1-0.1,0.2-0.2,0.3c0,0-0.1,0-0.1,0
	c0.1,0.1-0.1,0.3,0.2,0.3c0.2-0.1,0.3-0.4,0.2-0.6c0-0.1-0.1-0.1-0.1-0.2C18,110.5,18.1,110.6,18.2,110.6z"/>
<path class="st0" d="M18.8,94l0,0.1C18.8,94.1,18.8,94,18.8,94z"/>
<path class="st0" d="M19,83.7c0,0.1,0,0.1,0.1,0.1C19.1,83.8,19.1,83.7,19,83.7z"/>
<path class="st0" d="M19.5,82v0.1C19.5,82.1,19.5,82,19.5,82z"/>
<path class="st0" d="M18.8,94l0.1-0.3C18.8,93.7,18.9,93.9,18.8,94z"/>
<path class="st0" d="M17.2,108.3c0,0.1,0.1,0.1,0.1,0.2c0,0,0-0.1,0-0.1L17.2,108.3z"/>
<path class="st0" d="M19.1,98.5L19.1,98.5l0.2,0.2L19.1,98.5z"/>
<path class="st0" d="M19.2,102c0-0.1-0.3-0.1-0.5-0.1c0.1,0,0.2,0.1,0.2,0.2L19.2,102z"/>
<path class="st0" d="M19.2,96c0,0,0.1,0,0.1,0C19.3,96,19.3,96,19.2,96z"/>
<path class="st0" d="M12.7,14.8L12.7,14.8C12.7,14.8,12.6,14.8,12.7,14.8z"/>
<path class="st0" d="M8.5,16.1L8.5,16.1l-0.1-0.2L8.5,16.1z"/>
<path class="st0" d="M19.9,78.8L19.9,78.8C20,78.9,20,78.8,19.9,78.8z"/>
<path class="st0" d="M19.7,49.4c-0.3,0.3-0.4-0.5-0.7,0C19.1,49.3,19.5,49.8,19.7,49.4z"/>
<path class="st0" d="M17.3,108.2c0,0,0-0.1,0-0.1C17.2,108.1,17.2,108.1,17.3,108.2z"/>
<path class="st0" d="M19.7,71.4c-0.1,0-0.1,0-0.1,0.1C19.6,71.5,19.7,71.4,19.7,71.4z"/>
<path class="st0" d="M19.2,76.9l0-0.1C19.3,76.8,19.2,76.9,19.2,76.9z"/>
<path class="st0" d="M19.2,68.5c0-0.1,0.1-0.1,0-0.2h0C19.3,68.3,19.3,68.4,19.2,68.5C19.3,68.5,19.3,68.5,19.2,68.5z"/>
<path class="st0" d="M19.2,65.6C19.2,65.6,19.2,65.6,19.2,65.6l-0.1,0.2L19.2,65.6z"/>
<path class="st0" d="M16.8,11l0.3-0.7c-0.1,0.2-0.2,0.4-0.2,0.5C16.8,10.8,16.8,10.9,16.8,11C16.8,11,16.8,11,16.8,11z"/>
<path class="st0" d="M17.4,108.3c-0.1,0-0.1,0-0.1-0.1c0,0,0,0.1,0,0.1C17.3,108.3,17.4,108.3,17.4,108.3z"/>
<path class="st0" d="M16.5,68.4l0-0.5C16.5,68.1,16.5,68.3,16.5,68.4z"/>
<path class="st0" d="M16.9,29.3v-0.1C16.8,29.3,16.8,29.3,16.9,29.3z"/>
<path class="st0" d="M16.5,66.6c0.1-0.1,0.2-0.2,0.2-0.3c0,0-0.1,0-0.1,0L16.5,66.6z"/>
<path class="st0" d="M16.3,12.1c0-0.2,0-0.3,0-0.3s0-0.4,0-0.6s0,0.4,0,0.7c0.1-0.3,0.2-0.6,0.3-0.9c0,0.1-0.1,0.2-0.1,0.3
	c0.1-0.2,0.1-0.4,0.3-0.5c0.2-0.2,0.3-0.4,0.4-0.7V10l-0.1,0.3l0.6-1.4c0,0.1,0.3-0.3,0,0.4c0-0.1-0.1,0.1-0.2,0.3l0.1-0.1
	c-0.4,0.9-0.1,0.1-0.5,0.8c0.1-0.1,0.2-0.1,0.3-0.2c0.1,0,0.1,0,0.1,0.2c-0.4,0.6-0.1-0.2-0.5,0.6c0-0.1,0.1-0.3,0.2-0.5
	c-0.7,1.4,0-0.2-0.7,1.2c-0.1,0.1,0,0.1,0,0s0.1-0.1,0,0.1c0.2-0.2,0.4-0.4,0.6-0.6c0.2,0-0.1,0.4-0.3,0.6s-0.5,0.3-0.2,0.3
	s0.8-0.2,0.5,0.1c-0.2,0-0.3,0-0.5,0c0,0.1,0,0,0.1,0.1c0.1,0.1,0.1,0.1,0.2,0.2c0.1,0.1,0.2,0.2,0.1,0.5c-0.2-0.1-0.2-0.5-0.2-0.4
	c-0.4,0.4,0.3,0.3,0.3,0.6l-0.4,0.1c0.1,0.7,0.4,1.4,0.4,2.1c-0.1,0-0.2-0.2-0.4,0c0.1,1,0,2-0.3,2.9l0.4,0.3c0,0.1-0.1,0.1-0.2,0.1
	c0,0,0,0-0.1,0c-0.1,0.4,0.2,0,0.4,0.2c0,0.1-0.1,0.2-0.2,0.2c-0.1,0-0.1,0-0.2-0.1c0.4,0.7,0.5,1.6,0.3,2.4l-0.1-0.1
	c-0.1,0.5,0.7,0.6,0.4,1L17.1,22c-0.2,1.1,0.2,2.3-0.4,3.1c0.5,0.2-0.2,1.1,0.5,1.1c-0.4,0.6-0.5,0.5-0.7,1.3c0,0.2,0.5,0.4,0.5,0.6
	h-0.4l0.4,0.4l-0.5,0.2l0.1,0.3c0-0.1,0.2-0.2,0.3-0.2c0.1,0.4-0.1,0.8-0.5,1l0.3,1c-0.1,0-0.2-0.2-0.3-0.3c0.4,0.5-0.4,0.1,0,0.6
	c0.1-0.1,0.2,0,0.3,0c-0.2,0.4-0.3,0.8-0.1,1.2l-0.3-0.1c-0.1,0.7,0.1,1.6,0.1,2.4c0.1-0.2,0.3-0.2,0.4-0.2c0.1,0,0.1,0.1,0.2,0.2
	l-0.4,0.1c0.2,0.2,0.1-0.2,0.5,0.1c0,0.3-0.5,0.2-0.6,0l0.1,0.4c-0.1,0-0.2-0.1-0.3-0.1c0.2,0.2-0.4,0.7,0,0.9h-0.1
	c0,0.8,0.1,1.2,0.1,1.9c0.3,0,0.3,0.3,0.5,0.5c-0.2,0.5-0.3,1.1-0.4,1.7c0.2,0.4,0.3,0.1,0.5,0.3c-0.3,0-0.3,0.6-0.5,0.3
	c0,0.6,0.1,1.3,0.3,1.8c0.1-0.1,0.2-0.2,0.3-0.2c0,0.2-0.1,0.3-0.2,0.4c0,0,0,0,0,0l0,0c0.5,1-0.9,2.4-0.3,3.2l0,0l0.3,0.8
	c0,0.4-0.2-0.2-0.4,0c0.5,0.9-0.1,1.5,0.3,2.2C16,49.7,17,51.2,16.4,52h0.2c0.2,0.2-0.1,0.2-0.2,0.4c0.2,0,0.2-0.2,0.3-0.1
	c0.3,1.7-0.3,3.6-0.5,5.3c-0.1,0.7,1.1,0.4,0.6,1.2l-0.4-0.2c0.5,1.3,0,2.7,0.4,4c-0.1-0.1-0.2-0.1-0.2-0.2c-0.3,0.3,0,1,0.2,1
	c0,0.2-0.2,0-0.3,0.2s0.4,0.7,0.1,0.8c0,0-0.1-0.1-0.1-0.1c0.1,0.2,0,0.8,0.3,0.7c-0.2,0.5,0.1,0.9,0,1.3c0.4,0.2-0.2,0.8,0.4,0.9
	c-0.5,0-0.4,0.8-0.2,1.2c-0.2-0.1-0.2,0.3-0.4,0.1c0,0.3,0.1,0.7,0.4,0.6c-0.7,0.6,0.5,1.3-0.3,1.6c0.3,1,0.5,1.9,0.6,2.9
	c-0.5,0,0-1-0.6-1c0.2,0.9,0.7,1.4,0.6,2.3c-0.1,0.2-0.2-0.1-0.3-0.2c0.2,0.9,0,1.7,0.2,2.5c0,0-0.1-0.1-0.1-0.2
	c0,0.2-0.1,0.4,0.2,0.3L17,77.2c0.4-0.2,0.8,0.6,1,0.6c-0.7-0.3-0.2,0.8-1.1,0.4c0.1,0.1,0.2,0.2,0.3,0.2c0,0.2-0.1,0.2-0.3,0
	c0.1,0.6,0.4,0.4,0.4,0.9c-0.1,0-0.2-0.1-0.3-0.2c0.3,0.2,0.4,0.6,0.4,0.9c-0.1,0-0.2,0-0.2-0.1c0,0.7,0.6,1.2,0.4,2
	c-0.5-0.2-0.2,0.3-0.6,0.3l0.1,0.4l0.2-0.2c0,0.4,0.3,0.7,0.2,1l-0.2-0.3l0.1,0.7l0.2-0.4c0.2,0.4,0.6,0,0.5,0.5
	c0-0.1,0,0.4-0.3,0.6l0,0c0.1,0.2,0.3,0.4,0.2,0.7c-0.1,0.1-0.5-0.1-0.6,0c0.4,0.2,0.1,0.9,0.5,1.1c-0.1,0-0.3,0-0.4,0l0.3,0.2
	c-0.1,0.2-0.1,0.2-0.3,0.2c-0.1,0.5,0.6-0.2,0.3,0.5c0,0-0.1,0-0.1-0.1c-0.1,0.6,0.2,1.2,0,1.8c-0.5,0.2-0.1-0.5-0.5-0.3
	c0.2,0.8,0.4,1.7,0.5,2.5l0-0.2c0.6,0.1-0.3,0.6,0,1c0-0.1-0.4-0.1-0.3-0.1c0,0.7,0.1,1.4,0.4,2l-0.2-0.1c-0.1,0.4-0.1,0.8-0.2,1.2
	c0.2,0.1,0.1,0.3,0.4,0.2c-1,1.1,0.5,2-0.3,3c0-0.1-0.1-0.3-0.1-0.2l0.2,0.8c0.3-0.1,0.2-0.1,0.4-0.3c0.2,0.1,0.3,0.3,0.3,0.5
	c-0.2-0.4-0.5,0-0.6,0.2c0.1,0,0.2,0,0.3,0c-0.5,0.4,0.6,0.1,0.2,0.7h-0.1c0.1,0.2,0.3,0.4,0.2,0.7c-0.3,0.1-0.2-0.2-0.4-0.2
	c0,0.3,0.6,0.7,0.3,1c-0.1-0.1-0.1-0.3-0.2-0.5c-0.4,0.3-0.3,0.4-0.3,0.6l0,0l-0.2,0.6l0.1-0.1c0.9,0.4,0.1,0.8,0.7,1.4
	c-0.5-0.5-0.3-0.1-0.7-0.1c-0.1,0.1-0.2,0.3-0.3,0.3c0.3,0.3-0.2,0.4,0.2,0.8c-0.1,0,0,0.3-0.3,0.2c0.1,0.3,0.2-0.1,0.4-0.1
	c0.4,0.5-0.5,1.2,0.1,2c0.2,0.7,0.6,0.8,0.8,1.4c-0.2,0.2-0.4-0.2-0.4-0.2c-0.2,0.3-0.2,0.6,0,0.9c-0.1-0.1-0.2,0-0.3,0.1
	c0,0.2,0.4,0.2,0.3,0.5c-0.2-0.1-0.3-0.1-0.5-0.2c0.1,0.3,0.3,0.6,0.4,0.9c-0.2,0.1-0.3-0.2-0.5-0.3c0.1,0.3,0.2,0.9,0.5,1l0.1-0.2
	c0,0.1-0.3,0.1-0.3,0c-0.3-0.3,0.1-0.4,0.2-0.4l0.1,0.2c0.7-0.2-0.1-0.9-0.1-1.3l0.5,0.2l-0.4-0.4c0.1-0.1,0.4-0.2,0.5,0
	c0.2-0.3-0.2-0.3,0.1-0.5c0,0,0.1,0,0.1,0l-0.2-0.3c0.1,0.1,0.4,0,0.3,0.1c0.3-0.5-0.4-0.9,0-1.1l0,0c-0.2-0.8-0.4-0.1-0.8-0.6
	l0.9-0.4l-0.4-0.1c0-0.1,0-0.2,0.2-0.2c-0.2-0.3-0.2,0.1-0.4-0.1c0.3-0.4-0.2-1,0.4-1.1c-0.3-0.1-0.2,0.4-0.4,0
	c0.6-0.1-0.1-0.5,0.2-0.8c0.3,0.1,0.2,0.4,0.5,0.1c-0.6-0.2,0.1-0.7,0-1c-0.5,0-0.2-0.6-0.3-1.1c0.1,0,0.2-0.9,0.4-1.4H19
	c-0.5-0.1-0.4-0.6-0.5-0.9c0.2,0,0.4,0.1,0.5,0.3v-0.3c-0.1-0.1-0.2-0.2-0.3-0.4l0.3,0.1c0-0.4-0.4-0.9-0.2-1.4
	c-0.3,0-0.9,0.4-1.1-0.2c0.2,0,0.5,0,0.5,0.1c0-0.1-0.1-0.2-0.1-0.3l0.3,0.2c0.1-0.2-0.2-0.1-0.2-0.3c0.2,0,0.2-0.2,0.4-0.1
	c0,0.1-0.1,0.2,0,0.2c0-0.2,0.2-0.5,0.4-0.6c-0.1,0-0.3,0-0.4-0.2c0-0.4,0.3-0.2,0.4-0.4c-0.2-0.1,0-0.4-0.4-0.4
	c0-0.1,0.2-0.1,0.3-0.2c-0.1-0.2,0-1-0.4-0.8v0.1l0,0l0,0c-0.4-0.7,0.2-1.5,0-2.2h0.1c-0.1-0.4-0.1-1-0.3-1.3c0-0.2,0.2-0.3,0.4-0.2
	c-0.1-0.3-0.2-0.4,0-0.8c0.2,0.3,0.2-0.1,0.1,0.3c0.1-0.4,0.3-0.5,0-1c0.3,0.2,0.4-0.3,0.3-0.5l-0.2,0.3c0-0.2,0-0.4,0-0.6l0.4,0.1
	c0.5-0.9-0.8-1.6,0-2.2c-0.3-0.2-0.2,0.5-0.5,0.3c0-0.4,0.6-0.8,0.6-0.9c0.2-0.6-0.6-0.5-0.4-1.1c-0.2,0.1-0.5,0.1-0.6-0.2
	c0,0,0-0.1-0.1-0.1c0-0.4,0.6-0.5,0.7-0.2c0,0.1,0,0.1-0.1,0.1s0.1,0.3,0.3,0.1h-0.1c0.1-0.2,0.1-0.8,0.4-0.6
	c-0.1-0.3-0.2-0.1-0.3,0.1c0.2-0.5,0-0.8,0.1-1.3c-0.1,0.1-0.2,0.2-0.2,0.1c0.2-0.8-0.3-0.3-0.3-0.9c0.2-0.3,0.5,0.1,0.4-0.4
	c0.1-0.3,0.4-0.1,0.5,0.1c-0.3-0.5,0.2-0.9,0.2-1.2l0.1,0.2C20,80,20,79.9,20,79.7l-0.3,0.1c0-0.2,0-0.3,0.2-0.3
	c-0.2-0.2-0.5,0.1-0.8-0.2c0.1-0.2-0.1-0.6,0.2-0.7c-0.1,0.6,0.4-0.1,0.5,0.5c0-0.1,0-0.3,0-0.4c0,0,0.1,0,0.1,0.1
	c0.4-0.6-0.4-0.3-0.4-0.9c0.2,0.1,0.4-0.1,0.4-0.2c0,0.2-0.4,0.1-0.5-0.1c0.2-0.4-0.1-0.4-0.1-0.6l-0.1,0.2C19,77.2,19,77,18.9,76.7
	c0.2,0,0.1,0.3,0.2,0.2c-0.4-0.3,0.4-0.7,0.1-1.1c0.1-0.2,0.4,0,0.5-0.2c-0.3-0.5,0.3-0.5,0.1-1c-0.3,0.2-0.2,0.2-0.5-0.2l0.2,0.8
	l-0.4-0.5c0,0.2,0.2,0.5,0.1,0.7c-0.2-0.2-0.2-0.2-0.4-0.1c0.4-0.3-0.2-0.7,0-1.1h0.7c0.3-0.6-0.4-1-0.2-1.8l-0.1,0.2
	c-0.3-0.1,0-0.5-0.2-0.7c0.2,0,0.3-0.1,0.5-0.2c-0.2,0,0-0.6-0.5-0.6l0.3-0.3c0.1-0.6-0.7-0.7-0.6-1.3c0.3,0.2,0.4-0.1,0.6,0.3
	c0-0.2,0-0.4-0.1-0.4c0.1-0.1-0.3-0.6-0.1-0.7c-0.1-0.1-0.4-0.1-0.3-0.3c0-0.1,0.1-0.2,0.1-0.2c0,0,0,0,0,0c-0.1,0-0.2-0.3-0.4-0.2
	c0.8-0.6,0-1.7,0.6-2.3c-0.1-0.4-0.1-0.9-0.2-1.3c0.1,0,0.1,0,0.1,0.1c0.2-0.5-0.7-0.3-0.5-1c0.4-0.3,0.2,0.3,0.4,0.1
	c0.8-0.1-0.1-0.8,0.4-1.2v0.1c0.3-0.3-0.3-0.8-0.2-1.3c0,0,0.1,0,0.1,0c-0.4-0.4-0.6-1-0.6-1.5c0.3,0.2,0.2,0.2,0.5,0.1
	c0-0.2-0.5,0.1-0.6-0.4c0.2-0.2,0.3-0.5,0.7-0.5v0.4c0.4-0.2,0-0.5,0.1-0.8h0.2c-0.1-0.7-0.5-0.7-0.5-1.3l-0.1,0.1
	c-0.5-0.4,0.3-0.3-0.1-0.7l0.5-0.1c-0.2-0.4-0.4-0.9-0.6-1.3c0.3,0.3,0.6,0.7,0.8,1.1c0-0.2,0-0.8-0.3-1c0,0.1,0.2,0.2,0.1,0.3
	c-0.4-0.3-0.6-0.7-0.6-1.2c0.9,0.1,0.2-1.3,1-1.7c-0.4-0.9,0.1-1.8,0.1-2.8c-0.7,0.4,0-0.3-0.8-0.2c0-0.2,0-0.3,0-0.3l0.4-0.7
	c0.2-0.2,0.2,0.2,0.3,0.2c0-0.5,0.3-0.2,0.5-0.6c-0.3,0.1-0.4-0.2-0.3-0.5l-0.3,0.4c-0.4-0.7,0.6-0.6,0.2-1.4l0.2,0.2
	c-0.1-0.4,0-1.4-0.6-1.8c0.1-0.1,0.3-0.2,0.3,0c0.1-0.9-0.6-2-0.3-2.7l0.2,0.1c0-0.2-0.4-0.3-0.2-0.5c0.1,0,0.2,0.1,0.2,0
	s-0.3-0.5-0.2-0.7l0.2,0.2c0.2-0.9-0.5-1.4-0.6-2.1c0.5,0,0.7-0.7,0.8-1H20c-0.1-0.9-0.3-1.8-0.6-2.7c0.6-0.6,0.2-2,0.6-2.9
	c-0.1,0.1-0.4,0-0.5-0.2S19.1,32,19.6,32v0.1c0.5-0.2,0.4-0.6,0.4-1l-0.6-0.1c0.9-0.9-0.4-2.5,0.5-3c-0.2-0.2-0.2-0.5-0.3-0.7h0.4
	c0.1-0.6,0.1-1.1,0-1.7l0.2,0.1c0-0.4-1-0.5-1-1l0.5-0.1c0-0.8,0.4-1.5,0-2.3c0.1,0,0.2,0,0.2,0.2c0-0.4,0.4-1.4-0.4-1.3
	c0.5,0,0-0.8-0.2-1.2l0.3,0.1c-0.4-0.3-0.5-0.4-0.7-0.8c0-0.1,0.3-0.1,0.2,0c0.2-0.4-0.3-0.3-0.1-0.8l0.2,0.2c0-0.4-0.1-0.4-0.4-0.6
	c-0.1-0.3,0.1-0.7,0.4-0.8c-0.2,0-0.4-0.3-0.4-0.5c0.1,0,0.2,0,0.2,0.1c0.2-0.7-0.4-1-0.1-1.4c0.1,0,0.1,0,0.2-0.1
	c0,0.3,0,0.6,0,0.9c0.3,0,0.4-0.4,0.8-0.1c-0.2-0.3-0.8-0.9-0.6-1.3c0,0,0.1,0,0.1-0.1l0,0c0-0.1,0-0.2-0.1-0.3
	c0.1-0.1,0.1-0.2,0.1-0.3c0.3,0,0.1-0.5,0.1-0.7c-0.3,0-0.3-0.3-0.6,0c0,0,0,0,0,0.2c0,0,0,0.1,0,0.1l0,0c0,0.1,0,0.3,0,0.5
	c-0.2-0.2-0.3-0.3-0.1-0.6c-0.2-0.1-0.4-0.2-0.5-0.3c0.5-0.3,0.7-0.8,1-0.9c0-0.2-0.1-0.3-0.1-0.5c0-0.1,0-0.1,0-0.3s0-0.3,0-0.4
	c-0.1-0.5-0.2-1-0.6-1c-0.1-0.2,0.2-0.4,0.3-0.6c0.1,0.1,0,0.3,0.1,0.3c-0.2-0.4-0.1-1.6-0.5-1.2c0.2-0.9,0.4-0.1,0.3-0.9L19.3,8
	c0.2-0.5,0.2-1.1,0.1-1.6c-0.1-0.2-0.2-0.3-0.4-0.4c-0.3,0.4-0.6,0.8-1,1.2c-0.3,0.3-0.5,0.4-0.8,0.3c0.1,0,0.1,0,0.1,0.1
	c-0.9,0.6-1.7,1.2-2.4,2c-0.3,0.3-0.6,0.6-1,0.9c-0.3,0.2-0.7,0.4-1.1,0.6c-0.4,0.2-0.3,0.4-0.3,0.8l-0.3-0.2l-0.1,0.6
	c-0.3,0.7-1.4,0.1-1.7,1l0.2,0.1c-0.3,0.2-0.6,0.7-0.8,0.5c0,0,0.1,0.3-0.1,0.2l-0.1-0.1l-0.3,0.7c-0.5,0.3-0.4-0.6-1.1-0.1
	c-0.2,0.3-0.3,1-0.1,1c0.1-0.1,0.3-0.1,0.4,0l-0.1,0.3c0.3,0.5,0.6,1.1,1.3,0.9l0.1-0.6l0.3,0.1L10,16.6c0.3,0,0.3-0.2,0.3-0.4
	c0.1,0.1,0.2,0.1,0.4,0.1v-0.7c0.2,0.1,0.1,0.5,0.4,0.4c0-0.3-0.5-0.2-0.3-0.6c0.3,0,0.4,0.2,0.5-0.1c0.1,0.1,0.1,0.2,0.1,0.3
	c0.1-0.3,0.4-0.5,0.3-0.8c0.4,0.1,0.6-0.6,0.9-0.2c0-0.3,0-0.5,0.2-0.8c0.1,0.8,0.6-0.5,1,0.1c-0.1-0.6,0.6-0.9,0.8-1.5
	c0,0,0,0.2,0,0.2c0.3-0.2,0.4-0.1,0.6-0.1c-0.3-0.4,0-0.8,0-1.2c0.6,0.1,0.2,0.6,0.6,0.8c-0.1-0.1-0.1-0.3,0-0.5s0.1-0.2,0-0.2
	c0-0.1-0.1-0.1-0.1-0.2c0.3,0.2,0.2,0,0.4,0.4c-0.1-0.3-0.1-0.3-0.1-0.3s0,0,0-0.2c0.2,0.2,0.1,0.6,0.2,0.3
	C16.3,11.8,16.3,12.1,16.3,12.1z M17.3,15.3L17.3,15.3c0-0.1,0-0.2,0-0.2C17.3,15.1,17.3,15.2,17.3,15.3z M17.3,16.1
	c0-0.1,0-0.3,0-0.4c0.1,0,0.2,0,0.2,0.1S17.4,16,17.3,16.1z M19.7,14.3c0,0.1,0,0.2-0.1,0.2S19.6,14.3,19.7,14.3l-0.1,0
	C19.6,14.2,19.7,14.3,19.7,14.3z"/>
<path class="st0" d="M19.3,14C19.3,14,19.3,14,19.3,14C19.2,14,19.2,14,19.3,14L19.3,14C19.3,14,19.3,14,19.3,14z"/>
<path class="st0" d="M18.8,94.1L18.8,94.1C18.7,94.1,18.7,94.1,18.8,94.1L18.8,94.1z"/>
<polygon class="st0" points="16.7,28.4 16.8,28.4 16.7,28.3 "/>
<path class="st0" d="M17.6,99C17.5,99,17.5,99,17.6,99C17.5,99.1,17.5,99,17.6,99z"/>
<path class="st0" d="M17.5,101.1l-0.1,0.3C17.4,101.3,17.5,101.2,17.5,101.1z"/>
<path class="st0" d="M16.9,77C16.9,77,16.9,77,16.9,77C16.9,76.9,16.9,76.9,16.9,77z"/>
<path class="st0" d="M17.7,84.7c-0.1-0.1-0.1-0.2-0.2-0.2C17.5,84.6,17.5,84.7,17.7,84.7z"/>
<path class="st0" d="M17.6,84.1c-0.1,0.1-0.1,0.2,0,0.4C17.6,84.3,17.6,84.2,17.6,84.1z"/>
<path class="st0" d="M17.2,109.8L17.2,109.8C17.2,109.9,17.3,109.8,17.2,109.8z"/>
<path class="st0" d="M17.4,110.1l-0.1-0.2C17.3,110,17.2,110,17.4,110.1z"/>
<path class="st0" d="M17.3,106.9c0,0.2-0.3,0.4-0.2,0.6h0.1C17,107.4,17.5,107.1,17.3,106.9z"/>
<path class="st0" d="M18.9,104.2l-0.1,0.5c0.1-0.1,0.3-0.2,0.3,0C19.5,104.1,18.8,104.9,18.9,104.2z"/>
<path class="st0" d="M19,102.5c0.1,0.3,0.2,0,0.3,0C19.2,102.3,19.1,102.3,19,102.5z"/>
<path class="st0" d="M19,90.3h0.3C19.3,90.1,19.2,90.3,19,90.3z"/>
<polygon class="st0" points="17.4,88 17.2,88.2 17.5,88.3 "/>
<polygon class="st0" points="19.6,86.6 19.7,86.7 19.6,86.3 "/>
<path class="st0" d="M19.5,66.1l-0.4,0.1C19.2,66.3,19.7,66.3,19.5,66.1z"/>
<path class="st0" d="M19.1,57.2c0.2-0.1,0.3-0.3,0.1-0.5C19.2,57,19.1,57.1,19.1,57.2z"/>
<polygon class="st0" points="19.8,30.7 19.9,30.9 19.8,30.5 "/>
<path class="st0" d="M54.5,60.8c0.1,0,0.3,0,0.3-0.1l-0.4-0.1L54.5,60.8z"/>
<path class="st0" d="M55.2,60c-0.3-0.2-0.6-0.3-0.9-0.2c0.4,0.1,0.2,0.2,0.7,0.3c0,0.1-0.1,0.2-0.3,0.2c0.1,0-0.1,0.2,0.2,0.2
	c0.3-0.2,0.3-0.3,0.1-0.5C55,60,55.1,60,55.2,60z"/>
<path class="st0" d="M55.8,49.1L55.8,49.1C55.8,49.2,55.8,49.1,55.8,49.1z"/>
<path class="st0" d="M56.1,42.3C56.1,42.4,56.1,42.4,56.1,42.3C56.2,42.4,56.1,42.3,56.1,42.3z"/>
<path class="st0" d="M56.5,41.2L56.5,41.2C56.5,41.2,56.5,41.2,56.5,41.2z"/>
<path class="st0" d="M55.8,49.1l0.1-0.2C55.8,48.9,55.9,49,55.8,49.1z"/>
<path class="st0" d="M54.2,58.5c0,0,0.1,0.1,0.1,0.1c0,0,0-0.1,0-0.1H54.2z"/>
<path class="st0" d="M56.2,54.4c0,0-0.3-0.1-0.5-0.1c0.1,0,0.2,0,0.2,0.1C56.1,54.4,56.2,54.4,56.2,54.4z"/>
<path class="st0" d="M55.6,58L55.6,58C55.6,58,55.6,58,55.6,58z"/>
<path class="st0" d="M22.1,7.3L22.1,7.3l0.1-0.2L22.1,7.3z"/>
<path class="st0" d="M56.7,19.1c-0.2,0.2-0.3,0.1-0.4,0S56.1,19,56,19.3c0.1,0,0.2,0,0.3,0S56.6,19.4,56.7,19.1z"/>
<path class="st0" d="M54.3,58.5C54.3,58.4,54.3,58.4,54.3,58.5C54.3,58.4,54.3,58.4,54.3,58.5z"/>
<path class="st0" d="M56.8,34.2c0,0-0.1,0-0.2,0C56.6,34.2,56.7,34.2,56.8,34.2z"/>
<path class="st0" d="M56.3,37.8L56.3,37.8C56.3,37.8,56.3,37.8,56.3,37.8z"/>
<path class="st0" d="M56.3,32.3c0,0,0.1-0.1,0-0.1l0,0C56.3,32.2,56.3,32.2,56.3,32.3z"/>
<path class="st0" d="M56.3,30.3L56.3,30.3L56.3,30.3L56.3,30.3z"/>
<path class="st0" d="M29.7,11.6c0-0.1,0-0.2,0-0.3C29.7,11.5,29.4,11.4,29.7,11.6z"/>
<path class="st0" d="M54.4,58.5c-0.1,0-0.1,0-0.2,0c0,0,0,0,0,0.1C54.3,58.5,54.4,58.5,54.4,58.5z"/>
<path class="st0" d="M53.5,32.2l0-0.3C53.6,32,53.6,32.1,53.5,32.2z"/>
<path class="st0" d="M43,16.1L43,16.1C42.9,16.1,43,16.2,43,16.1z"/>
<path class="st0" d="M53.5,31c0.1,0,0.2-0.1,0.2-0.2h-0.1L53.5,31z"/>
<path class="st0" d="M27.5,11.3c0.3,0.1,0.3-0.4,0.4-0.6c0.4,0,0,0.4,0.1,0.6c0.2,0,0.5-0.4,0.7-0.3c0,0.1,0,0.1,0,0.2
	c0.3-0.3,0.7,0.2,1.1-0.1c0,0,0,0.1,0,0.1c0-0.2,0.1-0.4,0.2-0.6c0.1,0,0.3-0.2,0.3,0.1c-0.1,0-0.1,0.1-0.2,0.1l0.2-0.1
	c0,0.4-0.2,0.1-0.3,0.4c0.3,0,0.7-0.3,0.9-0.1c-0.1,0.4-0.5,0-0.4,0.4l-0.2-0.2c0,0.7-0.2-0.1-0.2,0.6c0.4,0.3,0.5,0,0.9,0.2
	c0.2-0.2,0.1-0.3,0.2-0.5c0.7-0.2,0.1,1.1,0.7,0.8c0.2-0.2,0.4-0.7,0.6-0.3l-0.2,0.4c0.4,0.2,0.4-0.6,0.7-0.1
	c-0.1,0.1-0.3,0-0.3,0.1c0.1,0.4,0.3-0.2,0.5-0.1l-0.1,0.4c0.4,0.1,1,0,1.5,0.1c-0.1,0.1-0.2,0.2-0.1,0.4c0.7,0.1,1.2,0.4,1.7,0.9
	l0.3-0.3c0,0,0,0.2,0,0.2c0.2,0.2,0.1-0.2,0.2-0.3s0.1,0.2,0,0.3c0.5-0.2,1.3-0.2,1.6,0.3L38,14.3c0.3,0.2,0.6-0.6,0.8-0.2h-0.1
	c0.6,0.4,1.5,0.3,1.8,1c0.3-0.4,0.6,0.5,0.9-0.2c0.3,0.5,0.1,0.6,0.6,1c0.1,0.1,0.4-0.4,0.6-0.4l-0.1,0.4l0.4-0.3v0.5H43
	C43,16,43,15.9,43,15.8c0.3-0.1,0.6,0.5,0.5,0.7l0.7-0.1c-0.1,0.1-0.2,0.1-0.3,0.2c0.5-0.2-0.1,0.4,0.4,0.2c0-0.1,0.1-0.2,0.1-0.3
	c0.1,0.3,0.4,0.4,0.7,0.4L45,17.1c0.5,0.2,1,0.2,1.5,0.4c-0.2-0.2,0-0.6,0.2-0.6l-0.1,0.4c0.2-0.2-0.1-0.2,0.2-0.4
	c0.2,0.1,0,0.5-0.2,0.6l0.3,0c0,0.1-0.1,0.1-0.2,0.3c0.2-0.2,0.3,0.5,0.6,0.2V18c0.5,0.2,0.8,0.1,1.2,0.3c0.1-0.3,0.3-0.2,0.5-0.4
	c0.3,0.2,0.5,0.6,0.9,0.7c0.3-0.1,0.2-0.2,0.4-0.4c-0.1,0.3,0.3,0.4,0,0.5c0.4,0.1,0.8,0.1,1.2,0.1c0-0.1-0.1-0.2,0-0.3
	s0.2,0.2,0.1,0.4l0,0c0.4-0.1,0.7,0.2,1,0.5c0.1,0.2,0.3,0.3,0.4,0.4c0.1,0,0.1,0.1,0.2,0.1c0.1,0,0.2,0,0.2-0.1l0,0
	c0.1-0.1,0.2-0.2,0.3-0.2c0.1,0.1-0.2,0.2-0.2,0.4c0.2-0.2,0.3-0.1,0.3-0.1S54,20,54.2,20l-0.4,0.2l0,0l0,0v0.1
	c0.1,0.4,0.2,0.7-0.1,1h0.2c0.2,0.1-0.1,0.2-0.2,0.3c0.2,0,0.2-0.1,0.3-0.1c0.3,1.1-0.3,2.4-0.5,3.5c-0.1,0.4,1.1,0.2,0.6,0.8
	l-0.4-0.1c0.5,0.9,0,1.8,0.4,2.6c-0.1,0-0.2,0-0.2-0.1c-0.3,0.2,0,0.7,0.2,0.7c0,0.1-0.2,0-0.3,0.1s0.4,0.5,0.1,0.5
	c0,0-0.1,0-0.1-0.1c0.1,0.1,0,0.5,0.3,0.4c-0.2,0.3,0.2,0.6,0,0.9c0.4,0.2-0.2,0.5,0.3,0.6c-0.5,0-0.4,0.6-0.2,0.8
	C54,32,54,32.2,53.7,32.2c0,0.2,0.1,0.4,0.4,0.4c-0.7,0.4,0.5,0.8-0.3,1.1c0.3,0.6,0.5,1.3,0.6,1.9c-0.5,0,0-0.7-0.6-0.7
	c0.2,0.6,0.7,0.9,0.6,1.5c-0.1,0.2-0.2-0.1-0.3-0.1c0.2,0.6,0,1.1,0.2,1.6c0,0-0.1-0.1-0.2-0.1S54.1,38,54.3,38l-0.3,0
	c0.4-0.2,0.8,0.4,1,0.4c-0.7-0.2-0.2,0.5-1.1,0.2c0.1,0.1,0.2,0.2,0.3,0.1c0,0.1-0.2,0.1-0.3,0c0.1,0.4,0.4,0.2,0.4,0.6
	c-0.1,0-0.2-0.1-0.3-0.1c0.2,0.2,0.5,0.3,0.4,0.6c-0.1,0-0.2,0-0.2-0.1c0,0.5,0.6,0.8,0.4,1.3c-0.5-0.2-0.2,0.2-0.6,0.2l0.1,0.3
	l0.2-0.1c0,0.2,0.3,0.5,0.2,0.7L54.4,42l0.1,0.5l0.2-0.3c0.2,0.2,0.6,0,0.5,0.3c0-0.1,0,0.2-0.3,0.4l0,0c0.1,0.1,0.3,0.2,0.2,0.4
	s-0.5,0-0.6,0c0.4,0.1,0.1,0.6,0.5,0.7c-0.1,0-0.3,0-0.4,0l0.3,0.1c-0.1,0.1-0.2,0.1-0.3,0.1c-0.1,0.3,0.6-0.1,0.3,0.3
	c0,0-0.1,0-0.1-0.1c-0.1,0.4,0.2,0.8,0,1.2c-0.5,0.1-0.1-0.3-0.5-0.2c0.1,0.5,0.5,1.1,0.5,1.7l0-0.1c0.7,0.1-0.3,0.4,0,0.7
	c0-0.1-0.4-0.1-0.3-0.1c-0.1,0.4,0.2,0.7,0.4,1.3l-0.2-0.1c-0.2,0.2-0.1,0.6-0.2,0.8c0.2,0.1,0.1,0.2,0.4,0.1c-1,0.7,0.5,1.3-0.3,2
	c0-0.1-0.2-0.2-0.2-0.1l0.2,0.5c0.3,0,0.2-0.1,0.4-0.2c0.2,0.1,0.3,0.2,0.3,0.3c-0.2-0.2-0.5,0-0.6,0.1c0.1,0,0.2,0,0.3,0
	c-0.5,0.3,0.6,0,0.2,0.4H55c0.1,0.1,0.3,0.3,0.2,0.4c-0.3,0.1-0.2-0.2-0.4-0.2c0,0.2,0.6,0.4,0.3,0.6c-0.1-0.1-0.1-0.2-0.2-0.3
	c-0.4,0.2-0.3,0.2-0.3,0.4l0,0l-0.2,0.4l0.1-0.1c0.8,0.3,0.2,0.5,0.7,0.9c-0.5-0.4-0.3-0.1-0.7-0.1c-0.1,0.1-0.2,0.2-0.3,0.2
	c0.3,0.2-0.2,0.3,0.2,0.5c-0.1,0,0,0.2-0.3,0.1c0.1,0.2,0.2,0,0.4,0c0.4,0.3-0.5,0.8,0.1,1.3c0.2,0.4,0.6,0.5,0.8,0.9
	c-0.2,0.1-0.4-0.1-0.4-0.1c-0.2,0.2-0.2,0.4,0,0.6c-0.1,0-0.2,0-0.3,0.1c0,0.2,0.4,0.1,0.3,0.3c-0.2,0-0.3-0.1-0.5-0.2
	c0.1,0.2,0.3,0.4,0.4,0.6c-0.2,0-0.3-0.1-0.5-0.2c0.1,0.2,0.2,0.6,0.5,0.7l0.1-0.2c0,0.1-0.3,0-0.3,0c-0.3-0.2,0.1-0.3,0.2-0.3
	l0.1,0.1c0.7-0.2-0.1-0.6-0.1-0.9l0.5,0.1L55,58.3c0.1-0.1,0.4-0.1,0.5,0c0.2-0.2-0.2-0.2,0.1-0.4c0,0,0.1,0,0.1,0l-0.2-0.2
	c0.1,0,0.4,0,0.3,0.1c0.3-0.4-0.4-0.6,0-0.7l0,0c-0.2-0.5-0.4,0-0.8-0.4l0.9-0.2h-0.4c0,0,0-0.2,0.2-0.1c-0.2-0.2-0.2,0-0.4-0.1
	c0.3-0.2-0.2-0.7,0.4-0.7c-0.3-0.1-0.2,0.2-0.4,0c0.6-0.1-0.1-0.3,0.2-0.5c0.3,0.1,0.2,0.3,0.5,0c-0.6-0.1,0.1-0.4,0-0.6
	c-0.5,0-0.2-0.4-0.3-0.7c0.2,0,0.2-0.6,0.4-0.9h0.1c-0.5,0-0.4-0.4-0.5-0.6c0.2,0,0.4,0,0.5,0.2v-0.2c-0.1,0-0.2-0.1-0.3-0.2h0.3
	c0-0.3-0.4-0.6-0.2-0.9c-0.3,0-0.9,0.3-1.1-0.1c0.2,0,0.5,0,0.5,0.1s-0.1-0.1-0.1-0.2l0.3,0.2c0.1-0.2-0.2-0.1-0.2-0.2
	c0.2,0,0.2-0.1,0.4-0.1c0,0-0.1,0.1,0,0.2c0.1-0.2,0.2-0.3,0.4-0.4c-0.1,0-0.3,0-0.3-0.1c0-0.3,0.3-0.1,0.4-0.3
	c-0.2-0.1,0-0.2-0.3-0.2c0-0.1,0.2-0.1,0.3-0.1c-0.2-0.2,0-0.7-0.4-0.5l0,0l0,0l0,0c-0.4-0.5,0.2-1,0-1.5h0.1
	c-0.1-0.3-0.1-0.6-0.3-0.8c0-0.1,0.2-0.2,0.4-0.2c-0.1-0.2-0.2-0.2,0-0.5c0.2,0.2,0.2-0.1,0.2,0.2c0.1-0.3,0.3-0.3,0-0.6
	c0.1,0.1,0.3,0,0.3-0.1c0-0.1,0-0.2,0-0.2l-0.2,0.2c0-0.1,0-0.3,0-0.4l0.4,0.1c0.5-0.6-0.8-1,0-1.5c-0.3-0.2-0.2,0.3-0.5,0.2
	c0-0.3,0.6-0.5,0.6-0.6c0.2-0.4-0.6-0.3-0.4-0.7c-0.2,0-0.5,0.1-0.7-0.2c0-0.3,0.6-0.3,0.7-0.2s0,0.1-0.1,0.1s0.1,0.2,0.3,0.1h-0.1
	c0.2-0.1,0.1-0.5,0.4-0.4c-0.1-0.2-0.2-0.1-0.3,0.1c0.2-0.3,0-0.5,0.2-0.9c-0.1,0.1-0.2,0.1-0.2,0c0.2-0.5-0.3-0.2-0.3-0.6
	c0.2-0.2,0.5,0.1,0.3-0.3c0.2-0.2,0.4,0,0.5,0c-0.3-0.3,0.2-0.6,0.2-0.8l0.1,0.2c-0.1-0.1-0.1-0.2-0.1-0.3l-0.3,0.1
	c0-0.1,0-0.2,0.2-0.2c-0.2-0.1-0.5,0.1-0.7-0.1c0.1-0.1-0.2-0.4,0.2-0.5c-0.1,0.4,0.4,0,0.5,0.3c0-0.1,0-0.2,0-0.2c0,0,0.1,0,0.1,0
	c0.3-0.4-0.4-0.2-0.4-0.6c0.2,0,0.4-0.1,0.4-0.2c0,0.2-0.4,0.1-0.5-0.1c0.2-0.3-0.1-0.3-0.1-0.4l-0.1,0.2c-0.2,0-0.2-0.2-0.3-0.4
	c0.2,0,0.1,0.2,0.2,0.1c-0.4-0.2,0.4-0.5,0.1-0.7c0.1-0.1,0.4,0,0.5-0.1c-0.3-0.3,0.3-0.3,0.1-0.7c-0.3,0.1-0.2,0.1-0.5-0.1l0.2,0.5
	l-0.4-0.3c0,0.2,0.2,0.3,0.1,0.5c-0.2-0.2-0.2-0.2-0.4-0.1c0.4-0.2-0.2-0.4,0-0.7h0.7c0.3-0.4-0.4-0.7-0.2-1.2l-0.1,0.2
	c-0.3-0.1,0-0.3-0.2-0.5c0.2,0,0.3-0.1,0.5-0.2c-0.2,0,0-0.4-0.5-0.4l0.3-0.2c0.1-0.4-0.7-0.5-0.6-0.9c0.3,0.1,0.4-0.1,0.6,0.2
	c0-0.1,0-0.2-0.1-0.3c0.2-0.1-0.3-0.4-0.1-0.5c-0.1-0.1-0.4-0.1-0.3-0.2c0,0.1,0.1,0.1,0.1,0.2c-0.1,0-0.2-0.2-0.4-0.1
	c0.8-0.4,0-1.1,0.6-1.5c-0.1-0.3-0.1-0.6-0.2-0.9c0.1,0,0.1,0,0.1,0c0.2-0.4-0.7-0.2-0.5-0.6c0.4-0.2,0.2,0.2,0.4,0.1
	c0.8-0.1-0.1-0.5,0.4-0.8v0.1c0.3-0.2-0.3-0.5-0.2-0.9c0,0,0.1,0,0.1,0c-0.3-0.2-0.6-0.6-0.7-1c0.3,0.1,0.2,0.1,0.5,0.1
	c0-0.1-0.5,0-0.6-0.2c0.2-0.2,0.4-0.3,0.7-0.3v0.3c0.4-0.1,0-0.4,0.1-0.5h0.2c-0.1-0.4-0.5-0.4-0.5-0.9l-0.1,0
	c-0.5-0.3,0.3-0.2-0.1-0.5l0.5-0.1c-0.2-0.3-0.4-0.6-0.5-0.9c0.3,0.2,0.5,0.4,0.8,0.7c0-0.2,0-0.6-0.3-0.6c0,0.1,0.2,0.1,0.1,0.2
	c-0.3-0.1-0.6-0.4-0.6-0.8c0.9,0.1,0.2-0.9,1-1.1c-0.1-0.3-0.2-0.6-0.1-0.9c0.1-0.4,0.2-0.8,0.2-1.2c-0.7,0.5,0-0.3-0.8-0.1
	c0-0.2,0-0.3,0-0.3c0.2-0.3,0.3-0.6,0.4-0.9c0.2-0.3,0.2,0.1,0.3,0c0-0.6,0.3-0.5,0.5-1l0,0c-0.2,0.2-0.6,0.2-0.8,0
	c0.1,0.1,0.1,0.3,0.2,0.4c-0.6,0-0.6-0.2-0.6-0.3s-0.2-0.4-0.7-0.4l0.4-0.1c-0.3,0-0.7-0.2-1.1-0.3c-0.3,0-0.5,0.1-0.7,0.3
	c0-0.1,0-0.3,0.1-0.3c-0.5-0.3-1.5,0.2-1.8-0.3l0.1-0.2c-0.1,0-0.3,0.3-0.4,0c0-0.1,0.1-0.2,0.1-0.2s-0.4,0.2-0.5,0l0.2-0.1
	c-0.5-0.4-1,0.2-1.5,0.1c0.1-0.4,0-0.8-0.4-1v-0.1c-0.6-0.3-1.2,0-1.9,0c-0.2-0.7-1.2-0.7-1.7-1.2c0.1,0.1-0.2,0.4-0.3,0.4
	c-0.1-0.1-0.5,0.2-0.3-0.2l0,0c0-0.5-0.3-0.5-0.5-0.6l-0.2,0.6c-0.3-1.1-1.6-0.2-1.7-1.1c-0.2,0.1-0.4,0-0.6,0.1l0.1-0.3
	c-0.3-0.2-0.6-0.4-1-0.4l0.2-0.2c-0.3-0.1-0.7,0.8-0.9,0.8l0.1-0.5c-0.5-0.1-0.8-0.8-1.4-0.5c0-0.1,0.1-0.2,0.2-0.2
	c-0.2-0.1-0.8-0.6-0.9,0.1c0.1-0.4-0.5-0.2-0.8-0.1l0.2-0.3c-0.4,0.3-0.4,0.4-0.8,0.5c0-0.1,0-0.3,0.1-0.2c-0.2-0.2-0.3,0.2-0.5,0
	l0.2-0.2c-0.2-0.1-0.3,0-0.5,0.2s-0.4-0.2-0.4-0.5c-0.1,0.2-0.3,0.4-0.4,0.2c0-0.1,0.1-0.2,0.1-0.2c-0.3-0.4-0.7,0.2-0.9-0.2
	c0-0.1,0-0.1,0-0.2c0.2,0.1,0.4,0.1,0.5,0.2c0.1-0.3-0.1-0.4,0.2-0.8c-0.3,0.1-0.8,0.5-1,0.3c0,0,0-0.1,0-0.1l0,0
	c-0.1,0-0.1,0-0.2,0c0-0.1-0.1-0.1-0.2-0.2c0-0.3-0.3-0.2-0.4-0.3c-0.1,0.3-0.2,0.2-0.2,0.5c0,0,0,0,0.1,0h0.1l0,0l0.3,0.1
	c-0.2,0.1-0.3,0.2-0.4,0c-0.1,0.2-0.2,0.3-0.4,0.5c0-0.5-0.3-0.9-0.2-1.2c-0.5,0-1-0.2-1.5,0.3C32,10.2,32,10,32,9.9s0.2,0,0.2-0.1
	C32,9.9,31.5,9.6,31.3,10c-0.2-0.3,0.3-0.3-0.1-0.4l0.1-0.1c-0.5-0.9-1.6,0.6-2.2-0.5c0,0.1,0.1,0.1,0,0.2c-0.8-0.7-2.1-0.3-2.9-1.3
	c-0.2-0.2-0.4,0-0.6,0.2l0.1-0.4L25.4,8c-0.5,0.1-0.4-1.1-1.1-0.7v0.3c-0.2-0.1-0.6-0.1-0.5-0.3c0,0-0.1,0.2-0.2,0.1l0.1-0.2
	l-0.6,0.2c-0.3-0.2,0.3-0.7-0.2-0.9c-0.2,0-0.7,0.3-0.7,0.5c0.1,0.1,0.2,0.2,0.1,0.4h-0.2c-0.2,0.5-0.5,1-0.2,1.6l0.4-0.2v0.3
	l-0.3,0c0.1,0.3,0.2,0.1,0.4,0c0,0.1,0,0.2,0,0.3l0.5-0.4c0,0.2-0.3,0.4-0.1,0.6c0.2-0.2,0-0.5,0.3-0.6C23.1,9,23,9.2,23.2,9
	c0,0.1-0.1,0.2-0.2,0.3c0.2-0.1,0.4,0.1,0.6-0.2c0,0.4,0.5,0.1,0.3,0.6c0.1-0.1,0.3-0.2,0.5-0.3c-0.5,0.5,0.5,0.2,0.2,0.9
	c0.4-0.5,0.8,0,1.2-0.2c0,0-0.1,0.1-0.1,0.1c0.2,0.1,0.2,0.3,0.2,0.4c0.2-0.4,0.5-0.4,0.8-0.7c0.1,0.5-0.3,0.5-0.4,0.9
	c0.1-0.4,0.5-0.2,0.5-0.6c0.1,0.2,0.1,0.4,0.1,0.6c0.2-0.6,0.2,0,0.5-0.3c0.2,0.4-0.1,0.6,0.2,0.5C27.8,11.2,27.5,11.3,27.5,11.3z
	 M34.4,12.6L34.4,12.6h-0.2H34.4z M35,12.8c-0.1,0-0.1-0.1-0.2-0.1c0-0.1,0.1-0.2,0.1-0.2S34.9,12.7,35,12.8L35,12.8z M34.6,10.1
	c0.1,0,0.1,0.1,0.1,0.1h-0.2l0,0C34.5,10.2,34.6,10.2,34.6,10.1z"/>
<path class="st0" d="M34.3,10.5L34.3,10.5L34.3,10.5L34.3,10.5L34.3,10.5z"/>
<polygon class="st0" points="42.3,16.1 42.4,16 42.3,16 "/>
<path class="st0" d="M54.6,52.4C54.6,52.4,54.6,52.4,54.6,52.4L54.6,52.4z"/>
<path class="st0" d="M54.5,53.8L54.4,54C54.5,53.9,54.5,53.9,54.5,53.8z"/>
<path class="st0" d="M54.4,54.8c0,0,0.1,0,0.1,0l0,0H54.4z"/>
<path class="st0" d="M54,37.9L54,37.9C54,37.9,53.9,37.8,54,37.9z"/>
<path class="st0" d="M54.8,42.9c-0.1,0-0.1-0.1-0.2-0.2C54.6,42.9,54.6,42.9,54.8,42.9z"/>
<path class="st0" d="M54.6,42.5c-0.1,0.1-0.1,0.2,0,0.2C54.6,42.7,54.6,42.6,54.6,42.5z"/>
<path class="st0" d="M54.2,59.5L54.2,59.5C54.2,59.6,54.3,59.5,54.2,59.5z"/>
<path class="st0" d="M54.4,59.7l-0.1-0.1C54.3,59.6,54.3,59.7,54.4,59.7z"/>
<path class="st0" d="M54.3,57.6c0,0.1-0.3,0.3-0.2,0.4h0.1C54.1,58,54.5,57.7,54.3,57.6z"/>
<path class="st0" d="M55.9,55.8l-0.1,0.4c0.1-0.1,0.3-0.1,0.3,0C56.5,55.8,55.8,56.3,55.9,55.8z"/>
<path class="st0" d="M56.1,54.7c0.1,0.2,0.2,0,0.3,0C56.2,54.6,56.2,54.6,56.1,54.7z"/>
<path class="st0" d="M56.1,46.7h0.3C56.3,46.5,56.3,46.7,56.1,46.7z"/>
<polygon class="st0" points="54.5,45.1 54.3,45.3 54.5,45.3 "/>
<polygon class="st0" points="56.7,44.2 56.7,44.3 56.6,44 "/>
<path class="st0" d="M56.6,30.7l-0.4,0C56.2,30.8,56.7,30.9,56.6,30.7z"/>
<path class="st0" d="M56.2,24.8c0.2-0.1,0.3-0.2,0.1-0.3C56.3,24.6,56.1,24.8,56.2,24.8z"/>
<polygon class="st0" points="44.8,13.7 45,13.6 44.7,13.6 "/>
<path class="st0" d="M121.3,83.6c-0.1,0-0.2,0.1-0.1,0.2c0,0.1,0.1,0.1,0.1,0.1l0.3-0.3L121.3,83.6z"/>
<path class="st0" d="M122.3,85.1c0.3,0,0.8-0.2,0.8-0.6c-0.4,0.2-0.4,0-0.9,0.3c-0.2,0-0.2-0.2-0.2-0.3c0,0,0-0.1,0-0.1
	c-0.1,0-0.3-0.3-0.5-0.1c0.1,0.4,0.5,0.7,0.9,0.6C122.5,85,122.3,85,122.3,85.1z"/>
<path class="st0" d="M138.7,99.7v-0.1C138.7,99.6,138.7,99.7,138.7,99.7z"/>
<path class="st0" d="M132.1,102.2c0.1,0,0.1,0,0.1-0.1S132,102.2,132.1,102.2z"/>
<path class="st0" d="M129.7,101.8h0.1C129.8,101.8,129.7,101.8,129.7,101.8z"/>
<path class="st0" d="M138.7,99.7l0.1,0.4C138.9,100,138.8,99.9,138.7,99.7z"/>
<path class="st0" d="M125.4,85.8c-0.1,0-0.2,0-0.2,0H125.4L125.4,85.8z"/>
<path class="st0" d="M134.4,95.5L134.4,95.5l-0.3-0.1L134.4,95.5z"/>
<path class="st0" d="M131,92.4c0.1,0.1,0.3-0.2,0.4-0.2c-0.1,0-0.2,0-0.3,0C131.1,92.3,131,92.3,131,92.4z"/>
<path class="st0" d="M136.6,97.9c0,0,0,0.1-0.1,0.1C136.6,98,136.6,98,136.6,97.9z"/>
<path class="st0" d="M46.1,75.2L46.1,75.2C46.2,75.2,46.1,75.2,46.1,75.2z"/>
<path class="st0" d="M47.8,69.8L47.8,69.8l0.2,0.1L47.8,69.8z"/>
<path class="st0" d="M125.4,101.5L125.4,101.5C125.5,101.4,125.4,101.4,125.4,101.5z"/>
<path class="st0" d="M85.9,102.4c0.5,0.3-0.7,0.4,0,0.7C85.8,103,86.5,102.6,85.9,102.4z"/>
<path class="st0" d="M125.5,86l0.2,0.1C125.6,86.1,125.6,86,125.5,86z"/>
<path class="st0" d="M115.5,101.9c0,0.1,0.1,0.1,0.1,0.2C115.6,102,115.6,101.9,115.5,101.9z"/>
<path class="st0" d="M122.9,102.2h-0.2C122.7,102.2,122.8,102.2,122.9,102.2z"/>
<path class="st0" d="M111.7,102.4c-0.1,0-0.1-0.1-0.3,0l0,0C111.4,102.3,111.6,102.3,111.7,102.4
	C111.6,102.4,111.7,102.4,111.7,102.4z"/>
<path class="st0" d="M107.7,102.5C107.7,102.5,107.7,102.5,107.7,102.5l0.2,0.1L107.7,102.5z"/>
<path class="st0" d="M46.3,87.3c0.1-0.1,0.2-0.1,0.3-0.2C46.3,87.2,46.2,86.6,46.3,87.3z"/>
<path class="st0" d="M125.3,86c0.1-0.1,0.1-0.1,0.2-0.1l-0.1-0.1C125.4,85.9,125.3,86,125.3,86z"/>
<path class="st0" d="M111.6,105.1h-0.6C111.1,105.2,111.3,105.2,111.6,105.1z"/>
<path class="st0" d="M59.1,105.7l-0.2,0.1C59,105.8,59.1,105.8,59.1,105.7z"/>
<path class="st0" d="M109,105.2c-0.1-0.1-0.2-0.2-0.4-0.2c0,0-0.1,0.1-0.1,0.1L109,105.2z"/>
<path class="st0" d="M45.8,83c0,0.6,0.5,0.3,0.7,0.4c0.1,0.7-0.3,0.3-0.6,0.6c0.1,0.4,0.5,0.8,0.5,1.1c-0.1,0-0.1,0.1-0.2,0
	c0.4,0.5,0,1.4,0.5,2c0,0-0.1,0.1-0.1,0.1c0.2-0.1,0.4-0.1,0.6-0.1c0,0.3,0.3,0.5,0,0.6c0-0.2-0.1-0.2-0.2-0.3l0.1,0.3
	c-0.4,0.2-0.2-0.4-0.5-0.4c0.1,0.6,0.5,1.2,0.4,1.6c-0.4,0.1-0.1-1-0.5-0.4l0.2-0.7c-0.7,0.5,0-0.4-0.7,0.1c-0.1,0.9,0.2,1,0.1,1.8
	c0.2,0.2,0.3-0.1,0.6,0.1c0.4,1.2-1,1-0.5,1.9c0.3,0.2,0.8,0.3,0.5,1l-0.5-0.2c0,0.8,0.7,0.5,0.4,1.3c-0.2-0.2-0.2-0.7-0.2-0.5
	c-0.4,0.6,0.3,0.4,0.3,0.8l-0.4,0.1c0.1,0.9,0.4,1.9,0.5,2.8c-0.1,0-0.3-0.2-0.4,0c0.1,1.3,0,2.6-0.3,3.8l0.4,0.5
	c0,0.1-0.2,0.2-0.2,0.1c-0.1,0.5,0.2,0,0.4,0.2s-0.2,0.3-0.3,0.2c0.1,0.2,0.1,0.4,0.2,0.6c0.1,0.3,0.1,0.7,0.2,1
	c0.1,0.7,0.1,1.4,0.1,2.2c0.3,0,0.5,0.1,0.8,0.1l-0.4,0.1c0.5,0,0.9-0.1,1.3-0.3c0.3-0.2,0.7-0.3,1.1-0.2l-0.2,0.1H50h0.6h1.1
	c0.7,0,1.4,0.1,2,0.3c0.2-0.5,1.5,0.2,1.5-0.5c0.8,0.3,0.6,0.5,1.8,0.7c0.3,0,0.5-0.4,0.8-0.5v0.4l0.5-0.4l0.3,0.4l0.4-0.1
	c-0.1,0-0.3-0.2-0.3-0.3c0.6-0.2,1.4,0.2,1.4,0.4l1.3-0.3c0,0.2-0.2,0.2-0.4,0.3c0.7-0.4,0.1,0.4,0.8,0c-0.1-0.1,0-0.2,0.1-0.3
	c0.5,0.2,1.1,0.2,1.6,0.1l-0.1,0.3c1,0,2.1-0.2,3.2-0.2c-0.2,0-0.3-0.1-0.3-0.3c0-0.2,0.1-0.3,0.3-0.3l0.1,0.4
	c0.2-0.2-0.3-0.2,0.1-0.5c0.4,0,0.3,0.4,0.1,0.6l0.5-0.2c0,0.1-0.1,0.2-0.1,0.3c0.2-0.3,0.9,0.4,1.2-0.1v0.1c1.1,0,1.6-0.2,2.5-0.2
	c0-0.3,0.4-0.3,0.6-0.6c0.7,0.2,1.5,0.3,2.2,0.3c0.6-0.2,0.2-0.3,0.4-0.5c0,0.3,0.9,0.3,0.4,0.5c0.8,0,1.7-0.2,2.5-0.4
	c-0.1-0.1-0.3-0.2-0.2-0.3s0.5,0.1,0.5,0.3h-0.1c1.4-0.5,3.2,0.9,4.3,0.2h-0.1l1.1-0.4c0.5,0-0.3,0.2,0.1,0.4c1.2-0.6,1.9,0,3-0.3
	c0.8,0.9,2.8-0.1,3.8,0.5l-0.1-0.2c0.3-0.2,0.3,0.1,0.5,0.2c0-0.2-0.3-0.2-0.1-0.3c2.3-0.3,4.8,0.2,7.2,0.4c0.9,0,0.5-1.1,1.6-0.6
	l-0.3,0.4c1.7-0.5,3.6,0,5.3-0.5c-0.1,0.1-0.1,0.2-0.3,0.2c0.4,0.3,1.3,0,1.3-0.2c0.3,0,0.1,0.2,0.2,0.3c0.4,0.2,0.9-0.4,1.1-0.1
	c0,0-0.1,0.1-0.2,0.1c0.2-0.2,1.1,0,0.9-0.3c0.7,0.2,1.2-0.2,1.8,0c0.3-0.4,1.1,0.2,1.2-0.4c0,0.6,1.1,0.4,1.5,0.2
	c-0.1,0.2,0.4,0.2,0.2,0.4c0.5,0,0.9-0.1,0.8-0.4c0.9,0.7,1.7-0.6,2.2,0.3c1.3-0.3,2.6-0.5,3.9-0.7c0,0.6-1.4,0.1-1.3,0.7
	c1.2-0.2,1.8-0.7,3-0.6c0.3,0.1-0.2,0.2-0.3,0.3c1.2-0.2,2.3,0,3.3-0.3c0,0.1-0.1,0.1-0.2,0.2c0.2,0,0.5,0.1,0.5-0.2l-0.2,0.1
	c-0.3-0.4,0.8-0.8,0.8-1c-0.3,0.7,1,0.2,0.5,1.1c0.1,0,0.3-0.2,0.3-0.3c0.2,0,0.3,0.2,0.1,0.3c0.7-0.2,0.5-0.4,1.1-0.4
	c0,0.1-0.1,0.2-0.2,0.3c0.3-0.3,0.8-0.5,1.2-0.4c0,0.1,0,0.2-0.1,0.2c1,0,1.7-0.7,2.7-0.4c-0.3,0.5,0.4,0.2,0.4,0.6l0.6-0.2
	l-0.2-0.2c0.5,0,0.9-0.3,1.4-0.2l-0.4,0.2l0.9-0.1l-0.5-0.2c0.5-0.2-0.1-0.6,0.6-0.5c-0.1,0,0.5,0,0.8,0.3l0,0
	c0.2-0.2,0.6-0.3,0.9-0.2c0.1,0.1-0.1,0.5,0,0.6c0.2-0.4,1.2-0.1,1.5-0.5c-0.1,0.1-0.1,0.3-0.1,0.4l0.2-0.3c0.2,0.1,0.3,0.2,0.2,0.3
	c0.7,0-0.2-0.6,0.6-0.3c-0.1,0,0,0.1-0.2,0.1c0.4,0.1,0.8,0.1,1.2,0c0.2,0,0.5-0.1,0.7-0.1c0.2,0,0.5,0,0.8,0
	c0.6,0.4-0.9,0.1-0.4,0.5c0.4,0,0.8-0.1,1.2-0.2l0.6-0.1l0.5-0.1c0.3-0.1,0.6-0.1,0.9-0.2h0.5h0.2c0,0,0.1,0,0,0l-0.1-0.2v0.2
	c-0.6-0.3-0.5-0.5-0.5-0.6s0.1-0.4-0.3-0.8c0.1,0.2,0.6,0.3,0.5,0.3c-0.6-1.1-1.4-2-2.4-2.8c0.1,0,0.2,0,0.2,0
	c-0.3-0.5-0.6-1-0.9-1.4c-0.2,0-0.4-0.2-0.4,0c-0.1-0.7-0.6-1.3-1.2-1.7c-0.6-0.4-1.1-0.8-1.3-1.5c0.1,0.1,0.4,0.2,0.3,0.1
	c-0.3-0.2-0.6-0.4-0.9-0.7c-0.1,0.3,0,0.2,0,0.5c-0.3,0-0.5-0.1-0.7-0.3c0.5,0.2,0.3-0.3,0.3-0.6c0,0.1-0.2,0.1-0.2,0.2
	c-0.1-0.8-0.4,0.3-0.8-0.4l0.1-0.1c-0.3-0.2-0.6-0.2-0.8-0.4c0.1-0.3,0.3,0.1,0.5-0.1c-0.4-0.3-1.1-0.1-1.1-0.6
	c0.2,0.1,0.4,0.2,0.6,0.3c0-0.3-0.1-0.6-0.4-0.8l0,0c-0.1-0.2-0.3-0.4-0.4-0.6l0.1,0.2c-1,0.3-1-0.6-1.9-0.7
	c0.9,0.1,0.3-0.2,0.6-0.4c-0.1-0.2-0.2-0.5-0.1-0.5c-0.5,0-0.3-0.6-1-0.5c0.1-0.1-0.3-0.2,0-0.4c-0.4-0.2,0,0.2-0.2,0.3
	c-0.4,0-0.7-0.4-1-0.8c-0.3-0.4-0.7-0.7-1.2-0.8c-0.8-0.3-1.2-0.1-2-0.4c-0.1-0.3,0.4-0.2,0.4-0.2c-0.2-0.3-0.6-0.6-1-0.7
	c0.1,0,0.1-0.2,0.1-0.3c-0.3-0.2-0.4,0.2-0.7-0.1c0.2-0.1,0.3-0.2,0.5-0.2c-0.4-0.1-0.8-0.1-1.2-0.3c0-0.2,0.4-0.1,0.6-0.2
	c-0.4-0.2-1.1-0.5-1.4-0.2l0.2,0.2c-0.2-0.1,0.1-0.3,0.2-0.3c0.2,0,0.4,0.1,0.4,0.3c0,0.1,0,0.1,0,0.2l-0.3-0.1
	c-0.1,0.7,1,0.5,1.5,0.9l-0.5,0.3h0.7c0,0.2,0,0.5-0.3,0.4c0.2,0.4,0.4,0,0.6,0.5c0,0.1,0,0.1-0.1,0.1l0.4,0.1
	c-0.1,0-0.1,0.3-0.3,0.1c0.4,0.6,1.2,0.4,1.2,0.8h-0.1c0.9,0.4,0.3-0.2,1.2-0.2l-0.1,1l0.3-0.2c0.1,0.1,0.2,0.2,0.1,0.3
	c0.5,0,0.1-0.2,0.4-0.2c0.2,0.6,1.2,0.7,0.9,1.3c0.3-0.1-0.2-0.5,0.3-0.3c-0.3,0.6,0.6,0.3,0.7,0.8c-0.3,0.2-0.6-0.2-0.4,0.3
	c0.6-0.3,0.6,0.7,1,0.8c0.3-0.3,0.8,0.4,1.3,0.7c-0.1,0.1,0.7,1,1.1,1.5h-0.1c0.4-0.2,0.8,0.2,1.2,0.5c-0.1,0.2-0.4,0.2-0.6,0.1
	l0.3,0.3c0.2,0,0.4,0,0.6,0.2l-0.3,0.2c0.4,0.4,1.1,0.5,1.4,1.2c0.3-0.2,0.2-1,0.9-0.6c-0.1,0.1-0.3,0.3-0.5,0.2
	c0.1,0,0.3,0.1,0.3,0.2h-0.4c0.1,0.3,0.3,0,0.5,0.2c-0.2,0.2,0,0.3-0.2,0.4s-0.1-0.2-0.2-0.2c0.2,0.2,0.3,0.5,0.2,0.8
	c0.1-0.1,0.2-0.2,0.4-0.1c0,0,0,0,0.1,0c0.4,0.4-0.1,0.3,0,0.7c0.2,0,0.3,0.4,0.6,0.2c0.1,0.1,0,0.3,0,0.4c0.3,0.1,0.9,1,1,0.5v-0.1
	l0,0l0,0c0.2,0.1,0.4,0.3,0.5,0.5c0.1,0.2,0.2,0.3,0.3,0.5c0.1,0.3,0.3,0.7,0.5,0.9h-0.2c0.2,0.2,0.4,0.4,0.6,0.6l0.3,0.3l0.2,0.2
	c0,0,0,0.1,0,0.1c-0.3-0.1-0.6-0.2-0.9-0.3c-0.1,0.1-0.1,0.2-0.7,0c0.1-0.2-0.3-0.2,0.1-0.2c-0.5-0.1-0.6-0.3-0.8,0
	c-0.1-0.3-0.4-0.4-0.5-0.3l0.3,0.2c-0.2,0-0.3,0-0.5,0c0-0.1,0-0.3,0-0.4c0,0,0-0.1-0.1-0.1c-0.1,0-0.1,0-0.2,0c-0.1,0-0.3,0-0.4,0
	c-0.3,0.1-0.5,0.1-0.8,0.2c-0.4,0.3-1,0.2-1.4-0.1c-0.3,0.3,0.6,0.2,0.4,0.5c-0.5,0-1.1-0.6-1.3-0.6c-0.7-0.2-0.7,0.6-1.4,0.5
	c0.1,0.1,0.2,0.5-0.4,0.7c-0.5,0-0.7-0.6-0.3-0.7c0.1,0,0.2,0,0.2,0.1c0.2-0.1,0.4-0.1,0.2-0.3l-0.1,0.2c-0.3-0.2-1-0.1-0.8-0.4
	c-0.4,0.2-0.2,0.2,0.1,0.3c-0.6-0.1-1.2-0.1-1.8-0.1c0.1,0.1,0.2,0.2,0.1,0.2c-1-0.2-0.4,0.3-1.1,0.4c-0.4-0.2,0.1-0.5-0.6-0.3
	c-0.4-0.1-0.1-0.4,0.1-0.5c-0.6,0.3-1.2-0.2-1.6-0.2l0.3-0.1c-0.2,0.1-0.4,0.1-0.5,0.1l0.2,0.3c-0.2,0-0.4,0-0.4-0.2
	c-0.2,0.2,0.2,0.5-0.2,0.8c-0.3-0.1-0.8,0.2-0.9-0.2c0.8,0.1-0.1-0.4,0.6-0.5c-0.2,0.1-0.3,0.1-0.5,0c0,0,0-0.1,0.1-0.1
	c-0.8-0.3-0.3,0.4-1.2,0.4c0.1-0.2-0.2-0.4-0.3-0.4c0.3,0,0.2,0.3-0.1,0.5c-0.5-0.2-0.6,0.1-0.9,0.1l0.3,0.1
	c-0.1,0.2-0.4,0.2-0.7,0.3c0-0.2,0.3-0.1,0.2-0.2c-0.4,0.4-0.9-0.4-1.5-0.1c-0.3-0.2,0-0.4-0.3-0.5c-0.6,0.3-0.7-0.3-1.4,0
	c0.2,0.3,0.2,0.2-0.2,0.5l1.1-0.2l-0.7,0.4c0.3,0,0.7-0.2,0.9-0.2c-0.3,0.2-0.3,0.2-0.1,0.4c-0.5-0.4-0.9,0.3-1.4,0V102
	c-0.8-0.3-1.4,0.4-2.4,0.2l0.3,0.1c-0.1,0.3-0.6,0-1,0.2c0-0.2-0.2-0.3-0.3-0.5c0,0.2-0.8,0-0.8,0.5l-0.5-0.3
	c-0.8-0.1-0.9,0.7-1.8,0.6c0.2-0.3-0.1-0.4,0.4-0.6c-0.3,0-0.5,0-0.5,0.1c-0.2-0.2-0.7,0.3-1,0.1c-0.1,0.1-0.2,0.4-0.4,0.3
	c0,0,0-0.1,0-0.1c0,0.1-0.5,0.2-0.2,0.4c-0.8-0.7-2.3,0.1-3-0.5c-0.6,0.1-1.3,0.2-1.8,0.2c0-0.1,0-0.1,0.1-0.1
	c-0.7-0.2-0.4,0.7-1.3,0.5c-0.4-0.4,0.4-0.2,0.2-0.4c-0.1-0.8-1,0.1-1.6-0.3h0.1c-0.4-0.3-1,0.3-1.7,0.3c0,0,0-0.1,0-0.1
	c-0.6,0.4-1.3,0.6-2,0.7c0.2-0.3,0.3-0.2,0.2-0.5c-0.3,0,0.1,0.5-0.5,0.6c-0.2-0.2-0.6-0.3-0.7-0.6h0.6c-0.3-0.4-0.7,0-1,0v-0.2
	c-0.9,0.1-0.9,0.6-1.8,0.5l0.1,0.1c-0.5,0.5-0.4-0.3-0.9,0.1l-0.2-0.5c-0.6,0.2-1.2,0.4-1.8,0.6c0.5-0.3,1-0.6,1.5-0.8
	c-0.3,0-1.1,0.1-1.3,0.3c0.1-0.1,0.3-0.2,0.4-0.1c-0.4,0.4-1,0.6-1.6,0.6c0.1-0.9-1.7-0.2-2.2-0.9c-1.2,0.4-2.3-0.1-3.7,0
	c0.5,0.7-0.4,0-0.3,0.8c-0.3,0.1-0.4,0-0.5,0l-1-0.4c-0.2-0.2,0.3-0.2,0.3-0.3c-0.7,0-0.3-0.3-0.8-0.5c0.1,0.3-0.2,0.4-0.6,0.3
	l0.6,0.3c-1,0.4-0.9-0.6-1.8-0.2l0.3-0.2c-0.5,0.2-1.9,0-2.3,0.6c-0.1-0.1-0.2-0.3,0-0.3c-1.2-0.1-2.7,0.7-3.6,0.3l0.1-0.2
	c-0.2,0.1-0.4,0.3-0.7,0.2c0-0.1,0.1-0.2,0-0.2s-0.6,0.3-0.9,0.2l0.2-0.2c-1.2-0.2-1.8,0.5-2.8,0.7c0-0.5-0.9-0.7-1.4-0.8v-0.1
	c-1.2,0.1-2.4,0.3-3.6,0.7c-0.8-0.6-2.7-0.2-4-0.5c0.2,0.1,0,0.4-0.2,0.5c-0.3-0.1-0.8,0.4-0.8-0.1h0.1c-0.2-0.5-0.8-0.3-1.3-0.3
	l-0.1,0.6c-1.3-0.9-3.3,0.4-4-0.4c-0.3,0.2-0.7,0.2-1,0.3V103c-0.8-0.1-1.5-0.1-2.3,0l0.2-0.2c-0.6,0-0.7,1-1.3,1l-0.2-0.5
	c-1,0-2.1-0.4-3.1,0.1c0-0.1,0.1-0.2,0.2-0.2h-0.5c-0.1,0-0.1,0-0.1,0s-0.2,0.1-0.4,0.4c0.2-0.3,0-0.2-0.2-0.1c-0.1,0-0.2,0-0.3-0.1
	l0.3-0.2c-0.1,0-0.3,0-0.5,0c-0.1,0-0.2-0.1-0.2-0.3s0.3-0.1,0.2,0c0,0,0-0.1,0-0.2c0-0.1-0.1-0.1-0.1-0.2c-0.1-0.2-0.1-0.4-0.1-0.6
	l0.2,0.2c0-0.5-0.1-0.5-0.3-0.8s0.1-1,0.4-1.1c-0.3-0.1-0.4-0.4-0.3-0.7c0.1,0,0.2,0.1,0.2,0.1c0.2-0.9-0.4-1.3-0.1-1.9
	c0.1,0,0.2,0,0.2-0.1c0,0.4,0,0.8,0,1.2c0.3,0,0.4-0.6,0.8-0.1c-0.2-0.4-0.8-1.2-0.6-1.8c0,0,0.1-0.1,0.1-0.1l0,0c0-0.1,0-0.2,0-0.3
	c0.1-0.1,0.1-0.3,0.1-0.4c0.3-0.1,0.1-0.7,0.2-0.9c-0.3,0-0.3-0.3-0.6,0c0,0,0,0,0.1,0.2c0,0,0,0.1,0,0.1l0,0c0,0.2,0,0.4,0,0.7
	c-0.2-0.2-0.3-0.5-0.1-0.8c-0.2-0.1-0.5-0.3-0.6-0.4c0.5-0.4,0.7-1.1,1-1.2c-0.2-0.9-0.1-2-0.8-2.6c-0.1-0.2,0.2-0.3,0.3-0.4
	c0.1,0.1,0.1,0.3,0.2,0.4c-0.2-0.5-0.1-1.4-0.5-1.6c0.2-0.6,0.4,0.3,0.3-0.5l0.1,0.1c0.7-1.7-1.2-2.7-0.2-4.6
	c-0.1,0.1-0.1,0.2-0.2,0.2c0.4-2.1-0.4-4.3,0.3-6.4c0.1-0.6-0.2-0.7-0.4-1l0.4-0.1L48,76.9c-0.3-0.9,0.9-1.5,0.3-2.6l-0.2,0.2
	c0-0.4-0.2-1.3,0.1-1.2c0,0-0.3-0.1-0.1-0.3h0.2l-0.3-1c0.1-0.8,0.8,0.1,0.8-1c-0.1-0.4-0.6-1.2-0.7-1s-0.1,0.4-0.3,0.4L47.6,70
	c-0.6-0.1-1.2-0.4-1.6,0.6l0.3,0.6l-0.3,0.2v-0.5c-0.3,0.3,0,0.5,0.1,0.7c-0.1,0-0.3,0.1-0.3,0.3l0.5,0.6c-0.2,0.1-0.5-0.3-0.6,0.1
	c0.2,0.3,0.5-0.3,0.7,0.2c-0.3,0.3-0.5,0.2-0.2,0.6c-0.2,0-0.2,0-0.3-0.2c0.2,0.3,0.1,0.8,0.4,1c-0.3,0.3,0.1,1.1-0.5,1.1
	c0.2,0.2,0.4,0.5,0.5,0.9c-0.7-0.5,0,1.1-0.7,1c0.6,0.4,0.3,1.4,0.6,2.2c0,0-0.1-0.1-0.1-0.2c-0.1,0.3-0.2,0.5-0.3,0.8
	c0.5,0,0.6,0.7,0.9,1c-0.5,0.5-0.6-0.3-1-0.1c0.4,0,0.4,0.8,0.7,0.7c-0.3,0.4-0.1,0.3-0.5,0.5c0.6,0.1,0.1,0.3,0.5,0.7
	c-0.3,0.5-0.6,0.1-0.4,0.7C46,83.5,45.8,83,45.8,83z M46.8,97.1L46.8,97.1c0-0.1,0-0.2,0-0.3S46.8,96.9,46.8,97.1L46.8,97.1z
	 M46.8,98.3c0-0.1,0-0.3,0-0.5s0.2,0,0.2,0.1C47,97.8,46.9,98.1,46.8,98.3L46.8,98.3z M49.1,95.8c0,0.2,0,0.2-0.1,0.3
	C49,95.9,49,95.8,49.1,95.8L49.1,95.8C49.1,95.7,49.1,95.7,49.1,95.8L49.1,95.8z"/>
<path class="st0" d="M48.7,95.4C48.7,95.4,48.7,95.4,48.7,95.4C48.7,95.4,48.7,95.4,48.7,95.4L48.7,95.4L48.7,95.4z"/>
<path class="st0" d="M138.6,99.5L138.6,99.5C138.6,99.5,138.6,99.5,138.6,99.5C138.6,99.5,138.6,99.5,138.6,99.5z"/>
<polygon class="st0" points="57.8,105.9 57.8,105.8 57.7,105.9 "/>
<path class="st0" d="M135.1,93.9c0,0,0-0.1,0-0.1C135.1,93.8,135.1,93.9,135.1,93.9z"/>
<path class="st0" d="M133.1,91.9l-0.2-0.4C132.9,91.7,133,91.8,133.1,91.9z"/>
<path class="st0" d="M131.5,90.4c0,0-0.1,0.1-0.1,0.1l0,0L131.5,90.4z"/>
<path class="st0" d="M123.1,104.5L123.1,104.5C122.8,104.6,122.9,104.6,123.1,104.5z"/>
<path class="st0" d="M133.3,103.5c-0.1,0.1-0.2,0.1-0.3,0.2C133.2,103.7,133.3,103.7,133.3,103.5z"/>
<polygon class="st0" points="111.6,105.1 111.6,105.1 111.6,105.1 "/>
<path class="st0" d="M132.5,103.7c0.2,0.1,0.3,0.1,0.5,0C132.8,103.7,132.7,103.7,132.5,103.7z"/>
<path class="st0" d="M123.8,84.8L123.8,84.8L123.8,84.8L123.8,84.8z"/>
<path class="st0" d="M123.7,84.8h-0.1C123.5,84.8,123.6,84.8,123.7,84.8z"/>
<path class="st0" d="M123.3,84.7h0.3C123.4,84.6,123.4,84.6,123.3,84.7z"/>
<path class="st0" d="M126.2,86.5L126.2,86.5C126.2,86.4,126.2,86.4,126.2,86.5z"/>
<path class="st0" d="M126.9,86.9c-0.2-0.2-0.3-0.5-0.6-0.6l-0.1,0.1C126.5,86.3,126.6,87,126.9,86.9z"/>
<path class="st0" d="M129,90.3l-0.5-0.5c0,0.2,0.1,0.4-0.2,0.3C128.7,90.9,128.2,89.7,129,90.3z"/>
<path class="st0" d="M130.6,91.9c-0.3-0.2-0.1,0.2-0.2,0.2C130.7,92.1,130.7,92.1,130.6,91.9z"/>
<path class="st0" d="M139.7,102.1l-0.5-0.3C139.1,101.8,139.4,101.9,139.7,102.1z"/>
<path class="st0" d="M137.8,103.8l0.1,0.1l0.2,0.1c0.1-0.1,0.1-0.2,0.2-0.3L137.8,103.8z"/>
<polygon class="st0" points="135.9,101.6 136,101.5 135.5,101.6 "/>
<path class="st0" d="M108.4,102.2l0.1,0.4C108.7,102.5,108.7,102.1,108.4,102.2z"/>
<path class="st0" d="M96.5,102.8c-0.1-0.2-0.4-0.3-0.7-0.1c0,0,0,0,0,0C96.1,102.7,96.4,102.8,96.5,102.8z"/>
<polygon class="st0" points="60.9,102.8 61.2,102.7 60.7,102.8 "/>
<path class="st0" d="M12,109c0.1,0,0.3,0,0.3-0.1l-0.4-0.1L12,109z"/>
<path class="st0" d="M12.7,108.4c-0.3-0.1-0.6-0.2-0.9-0.1c0.4,0.1,0.2,0.1,0.7,0.2c0,0.1-0.1,0.1-0.3,0.1c0.1,0-0.1,0.1,0.2,0.2
	c0.3-0.1,0.3-0.2,0.1-0.4C12.5,108.4,12.6,108.4,12.7,108.4z"/>
<path class="st0" d="M13.6,95.9C13.6,95.9,13.6,95.9,13.6,95.9C13.8,95.9,13.6,95.8,13.6,95.9z"/>
<path class="st0" d="M14,95L14,95C14,95,14.1,95.1,14,95z"/>
<path class="st0" d="M13.4,100.7l0.1-0.1C13.4,100.5,13.4,100.6,13.4,100.7z"/>
<path class="st0" d="M11.7,107.4c0,0,0.1,0.1,0.1,0.1v-0.1L11.7,107.4z"/>
<path class="st0" d="M13.7,104.4c0,0-0.3,0-0.5-0.1c0.1,0,0.2,0,0.2,0.1L13.7,104.4z"/>
<path class="st0" d="M7.1,66.3L7.1,66.3C7.1,66.3,7.1,66.3,7.1,66.3z"/>
<polygon class="st0" points="4.8,65.3 4.8,65.3 4.7,65.1 "/>
<path class="st0" d="M14.5,93.5L14.5,93.5C14.5,93.5,14.5,93.6,14.5,93.5z"/>
<path class="st0" d="M14.2,79.7c-0.3,0.2-0.4-0.2-0.7,0C13.6,79.7,14,79.9,14.2,79.7z"/>
<path class="st0" d="M11.8,107.3C11.8,107.3,11.8,107.3,11.8,107.3C11.8,107.3,11.8,107.3,11.8,107.3z"/>
<path class="st0" d="M14.2,90.1h-0.1C14.1,90.1,14.2,90.1,14.2,90.1z"/>
<path class="st0" d="M13.8,92.7L13.8,92.7C13.8,92.6,13.8,92.6,13.8,92.7z"/>
<path class="st0" d="M13.8,88.7C13.8,88.7,13.8,88.7,13.8,88.7L13.8,88.7C13.8,88.7,13.8,88.7,13.8,88.7z"/>
<path class="st0" d="M10.7,64.9l-0.1-0.3C10.7,64.8,10.7,65,10.7,64.9z"/>
<path class="st0" d="M11.9,107.4c-0.1,0-0.1,0-0.1,0s0,0,0,0.1L11.9,107.4z"/>
<path class="st0" d="M11.1,88.7v-0.2C11,88.5,11,88.6,11.1,88.7z"/>
<path class="st0" d="M11.4,70.3L11.4,70.3C11.4,70.3,11.3,70.3,11.4,70.3z"/>
<path class="st0" d="M11.1,87.8c0.1,0,0.2-0.1,0.2-0.1h-0.1L11.1,87.8z"/>
<path class="st0" d="M9.8,65.8c0.2-0.1,0-0.4-0.1-0.7c0.2-0.2,0.2,0.3,0.4,0.5c0.1-0.2,0.1-0.6,0.2-0.6c0,0.1,0.1,0.1,0.1,0.2
	c0-0.2,0.1-0.2,0.2-0.3s0.1-0.1,0.1-0.3c0,0,0,0.1,0,0.1c0-0.2-0.1-0.4-0.1-0.6s0.1-0.3,0.1,0c0,0,0,0.1,0,0.2l0.1-0.2
	c0.1,0.4-0.1,0.2,0,0.5c0.1-0.2,0.2-0.6,0.3-0.5c-0.1,0.5-0.2,0.2-0.1,0.6l-0.1-0.1c0.1,0.7,0,0,0,0.7c0,0.1,0.1-0.2,0.1-0.1
	c0.1-0.3,0.1-0.4,0.2-0.7s0.1,0,0,0.3s-0.2,0.6,0,0.2s0.6-1,0.5-0.7l-0.4,0.6c0,0,0.6-0.9,0.5-0.5s-0.2,0.2-0.3,0.3
	c-0.2,0.4,0.1-0.2,0.3-0.4l0,0l-0.4,0.6c0.1,0,0.4-0.2,0.4-0.1c-0.1,0.1-0.3,0.2-0.4,0.3c0.2,0,0,0.4-0.3,0.4c0.1,0,0.2,0,0.4,0
	c-0.1,0-0.2,0-0.2,0c-0.1,0,0.2,0,0.4,0s-0.2,0.1-0.3,0c0.3,0.3,0.7,0.8,0.3,1.1l-0.1-0.1c-0.1,0.2,0.7,0.3,0.4,0.5h-0.1
	c-0.2,0.5,0.2,1.1-0.4,1.5c0.5,0.1-0.2,0.5,0.5,0.5c-0.4,0.3-0.5,0.2-0.7,0.6c0,0.1,0.4,0.2,0.5,0.3h-0.4l0.4,0.2l-0.4,0.1l0.1,0.1
	c0.1-0.1,0.2-0.1,0.3-0.1c0.2,0.2-0.3,0.5-0.5,0.5l0.3,0.5c-0.1,0-0.2-0.1-0.3-0.2c0.4,0.2-0.4,0,0,0.3c0.1,0,0.2,0,0.3,0
	c-0.2,0.1-0.3,0.4-0.1,0.6c0,0,0,0,0,0h-0.3c0,0.4,0,0.7,0.1,1.1c0.1-0.1,0.6-0.1,0.6,0h-0.4c0.2,0.1,0.1-0.1,0.4,0
	c0,0.2-0.4,0.1-0.6,0l0.1,0.2c-0.1,0-0.2,0-0.3,0c0.2,0.1-0.4,0.3,0,0.4H11c0,0.3,0.1,0.6,0.2,0.9c0.3,0,0.3,0.1,0.5,0.2
	c-0.1,0.2-0.4,0.5-0.4,0.8s0.3,0.1,0.5,0.2c-0.3,0-0.3,0.3-0.5,0.2c0,0.3,0.1,0.6,0.3,0.9c0.1,0,0.2-0.1,0.3-0.1s-0.1,0.2-0.3,0.2
	l0,0c0.5,0.5-0.9,1.1-0.3,1.5l0,0l0.3,0.4c-0.1,0.2-0.2-0.1-0.4,0c0.5,0.4-0.1,0.7,0.3,1c-0.9,0.3,0.1,1-0.5,1.3h0.2
	c0.2,0.1-0.1,0.1-0.2,0.2c0.2,0,0.2-0.1,0.3,0c0.3,0.8-0.3,1.7-0.5,2.5c-0.1,0.3,1.1,0.2,0.6,0.6L11,84.1c0.5,0.6,0,1.2,0.4,1.8
	c-0.1,0-0.2,0-0.2-0.1c-0.3,0.1,0,0.5,0.2,0.5c0,0.1-0.2,0-0.3,0.1s0.4,0.3,0.1,0.4c-0.1,0-0.1,0-0.1-0.1c0.1,0.1,0,0.4,0.3,0.3
	c-0.2,0.2,0.1,0.4-0.1,0.6c0.4,0.1-0.2,0.4,0.4,0.4c-0.6,0-0.4,0.4-0.2,0.5c-0.2,0-0.2,0.1-0.4,0.1c0,0.2,0.1,0.3,0.4,0.3
	c-0.7,0.3,0.5,0.6-0.3,0.8c0.3,0.4,0.5,0.9,0.6,1.4c-0.6,0,0-0.5-0.6-0.5c0.2,0.4,0.7,0.7,0.6,1.1c-0.1,0.1-0.2-0.1-0.3-0.1
	c0.2,0.4,0,0.8,0.2,1.2c-0.1,0-0.1,0-0.1-0.1c0,0.1-0.1,0.2,0.2,0.2l-0.1-0.1c0.4-0.1,0.8,0.3,1,0.3c-0.7-0.1-0.2,0.4-1.1,0.2
	c0.1,0.1,0.2,0.1,0.3,0.1c0,0.1-0.1,0.1-0.3,0c0.1,0.3,0.4,0.2,0.4,0.4c-0.1,0-0.2,0-0.3-0.1c0.2,0.1,0.5,0.2,0.4,0.4
	c-0.1,0-0.2,0-0.2,0c0,0.3,0.6,0.6,0.4,1c-0.5-0.1-0.2,0.1-0.6,0.1l0.1,0.2l0.2-0.1c0,0.2,0.3,0.3,0.2,0.5l-0.2-0.1l0.1,0.3l0.2-0.2
	c0.2,0.2,0.6,0,0.4,0.2c0,0,0,0.2-0.3,0.3l0,0c0.1,0.1,0.3,0.2,0.2,0.3s-0.5,0-0.6,0c0.4,0.1,0.1,0.4,0.5,0.5c-0.1,0-0.3,0-0.4,0
	l0.3,0.1c-0.1,0.1-0.1,0.1-0.3,0.1c-0.1,0.2,0.6-0.1,0.3,0.2c0,0-0.1,0-0.1-0.1c-0.1,0.3,0.2,0.6,0,0.8c-0.5,0.1-0.1-0.2-0.5-0.1
	c0.1,0.4,0.6,0.8,0.4,1.2v-0.1c0.6,0.1-0.3,0.3,0,0.5c-0.1,0-0.2,0-0.3-0.1c-0.1,0.3,0.2,0.5,0.4,0.9h-0.2c-0.1,0.2-0.1,0.4-0.2,0.6
	c0.2,0,0.1,0.1,0.4,0.1c-1,0.5,0.5,1-0.3,1.4c0,0-0.1-0.1-0.1-0.1L12,103c0.3,0,0.2,0,0.4-0.1s0.3,0.2,0.3,0.2
	c-0.2-0.2-0.5,0-0.6,0.1c0.1,0,0.2,0,0.3,0c-0.5,0.2,0.6,0,0.2,0.3h-0.1c0.1,0.1,0.3,0.2,0.2,0.3c-0.3,0-0.1-0.1-0.4-0.1
	c0,0.2,0.6,0.3,0.3,0.4c-0.1-0.1-0.1-0.2-0.2-0.2c-0.4,0.2-0.3,0.2-0.3,0.3l0,0l-0.2,0.3l0.1-0.1c0.9,0.2,0.1,0.4,0.7,0.7
	c-0.5-0.2-0.3,0-0.7-0.1c-0.1,0.1-0.2,0.2-0.3,0.1c0.3,0.1-0.2,0.2,0.2,0.4c-0.1,0,0,0.1-0.3,0.1c0.1,0.2,0.2,0,0.4,0
	c0.4,0.2-0.5,0.6,0.1,0.9c0.2,0.3,0.6,0.4,0.8,0.6c-0.2,0.1-0.4-0.1-0.4-0.1c-0.2,0.2-0.1,0.3,0,0.4c-0.1,0-0.2,0-0.3,0
	c0,0.1,0.4,0.1,0.3,0.2c-0.2,0-0.3-0.1-0.5-0.1c0.1,0.1,0.3,0.3,0.4,0.4c-0.2,0-0.3-0.1-0.4-0.1c0.1,0.2,0.2,0.4,0.5,0.5l0.1-0.1
	c0,0.1-0.3,0-0.3,0c-0.3-0.1,0.1-0.2,0.2-0.2l0.1,0.1c0.7-0.1-0.1-0.4-0.1-0.6l0.5,0.1l-0.4-0.2c0.1,0,0.4-0.1,0.5,0
	c0.2-0.2-0.2-0.1,0.1-0.3c0,0,0.1,0,0.1,0L13,107c0.1,0,0.4,0,0.3,0.1c0.3-0.3-0.4-0.4,0-0.5l0,0c-0.2-0.3-0.4,0-0.8-0.3l0.9-0.2H13
	c0,0,0-0.1,0.2-0.1c-0.2-0.1-0.2,0-0.4-0.1c0.3-0.2-0.2-0.5,0.4-0.5c-0.3-0.1-0.2,0.2-0.4,0c0.6,0-0.1-0.2,0.2-0.4
	c0.3,0,0.2,0.2,0.4,0c-0.6-0.1,0.1-0.3,0-0.4c-0.4,0-0.2-0.3-0.3-0.5c0.1,0,0.2-0.4,0.4-0.6h0.1c-0.4,0-0.4-0.3-0.4-0.4
	c0.2,0,0.3,0,0.5,0.1v-0.2c-0.1,0-0.2-0.1-0.3-0.2h0.3c0-0.2-0.4-0.4-0.2-0.7c-0.3,0-0.9,0.2-1.1-0.1c0.2,0,0.5,0,0.5,0.1
	s-0.1-0.1-0.1-0.1l0.3,0.1c0.1-0.1-0.2-0.1-0.2-0.2c0.2,0,0.2-0.1,0.4-0.1c0,0-0.1,0.1,0,0.1c0.1-0.1,0.2-0.2,0.4-0.3
	c-0.1,0-0.3,0-0.4-0.1s0.3-0.1,0.4-0.2c-0.2,0,0-0.2-0.4-0.2c0-0.1,0.2-0.1,0.3-0.1c-0.2-0.1,0-0.5-0.4-0.4l0,0l0,0
	c-0.4-0.3,0.2-0.7,0.1-1h0.1c-0.1-0.2-0.1-0.4-0.3-0.6c0-0.1,0.2-0.1,0.4-0.1c-0.1-0.2-0.2-0.2,0-0.4c0.2,0.2,0.2-0.1,0.1,0.2
	c0.1-0.2,0.3-0.2,0-0.5c0.3,0.1,0.4-0.2,0.3-0.2l-0.2,0.1c0-0.1,0-0.2,0-0.3H14c0.5-0.4-0.8-0.7,0-1c-0.3-0.1-0.2,0.2-0.5,0.1
	c0-0.2,0.6-0.4,0.6-0.4c0.2-0.2-0.6-0.2-0.4-0.5c-0.1,0-0.5,0.1-0.7-0.1c0.1-0.2,0.6-0.2,0.7-0.1s0,0.1-0.1,0.1
	c0,0.1,0.2,0.1,0.3,0.1c0,0,0,0,0,0h-0.1c0.1-0.1,0.1-0.3,0.4-0.3c-0.1-0.1-0.2-0.1-0.3,0c0.2-0.2,0-0.4,0.1-0.6
	c-0.1,0-0.2,0.1-0.2,0c0.2-0.4-0.3-0.2-0.3-0.4c0.2-0.1,0.5,0,0.4-0.2c0.1-0.2,0.4,0,0.5,0c-0.3-0.2,0.2-0.4,0.2-0.6l0.1,0.1
	c0-0.1-0.1-0.1-0.1-0.2L14.3,94c0.1-0.1,0.1-0.1,0.2-0.1c-0.2-0.1-0.5,0-0.8-0.1c0.1-0.1-0.1-0.3,0.2-0.3c-0.1,0.3,0.4,0,0.4,0.2
	c0-0.1,0-0.1,0-0.2c0,0,0.1,0,0.1,0c0.3-0.3-0.4-0.1-0.4-0.4c0.2,0,0.4-0.1,0.4-0.1c0,0.1-0.4,0.1-0.5,0c0.2-0.2-0.1-0.2-0.1-0.3
	l-0.1,0.1c-0.2,0-0.2-0.1-0.2-0.3c0.2,0,0.1,0.1,0.2,0.1c-0.4-0.2,0.4-0.3,0.1-0.5c0.1-0.1,0.4,0,0.5-0.1c-0.3-0.2,0.3-0.2,0.1-0.5
	c-0.3,0.1-0.2,0.1-0.5-0.1l0.2,0.4l-0.4-0.2c0,0.1,0.2,0.2,0.1,0.3c-0.2-0.1-0.2-0.1-0.4,0c0.4-0.2-0.3-0.3,0-0.5h0.7
	c0.3-0.3-0.4-0.5-0.2-0.9l-0.1,0.1c-0.3,0,0-0.2-0.2-0.3c0.2,0,0.3,0,0.5-0.1c-0.2,0,0-0.3-0.5-0.3l0.3-0.2c0.1-0.3-0.7-0.3-0.6-0.6
	c0.3,0.1,0.4,0,0.6,0.2c0-0.1,0-0.2-0.1-0.2c0.1,0-0.3-0.3-0.1-0.3c-0.1,0-0.4-0.1-0.3-0.2c0,0,0.1,0,0.1,0c-0.1,0-0.2-0.2-0.4-0.1
	c0.8-0.3,0-0.8,0.6-1c-0.1-0.2-0.1-0.4-0.2-0.6c0.1,0,0.1,0,0.1,0c0.2-0.2-0.7-0.2-0.4-0.4c0.4-0.1,0.2,0.2,0.4,0.1
	c0.8,0-0.1-0.4,0.4-0.6l0,0c0.3-0.2-0.3-0.4-0.2-0.6c0,0,0.1,0,0.1,0c-0.3-0.1-0.5-0.4-0.6-0.7c0.3,0.1,0.2,0.1,0.5,0.1
	c-0.1-0.1-0.5,0-0.6-0.2c0.2-0.1,0.4-0.2,0.7-0.2v0.2c0.4-0.1,0-0.3,0.1-0.4L14,84c-0.1-0.3-0.5-0.3-0.5-0.6h-0.1
	c-0.5-0.2,0.3-0.2-0.1-0.3l0.5-0.1c-0.2-0.2-0.4-0.4-0.6-0.6c0.3,0.1,0.5,0.3,0.8,0.5c0-0.1,0-0.4-0.3-0.5c0,0,0.2,0.1,0.1,0.2
	c-0.4-0.1-0.6-0.3-0.6-0.6c0.9,0.1,0.2-0.6,1-0.8c-0.4-0.4,0.1-0.8,0.1-1.3c-0.7,0.2,0-0.1-0.8-0.1c0-0.1,0-0.2,0-0.2l0.4-0.3
	c0.2-0.1,0.2,0.1,0.3,0.1c0.1-0.2,0.3-0.1,0.5-0.3c-0.3,0-0.4-0.1-0.3-0.2l-0.3,0.2c-0.4-0.3,0.6-0.3,0.2-0.6l0.2,0.1
	c-0.1-0.2,0-0.7-0.6-0.8c0.1,0,0.3-0.1,0.3,0c0.1-0.4-0.6-1-0.3-1.3h0.2c0-0.1-0.4-0.1-0.2-0.2s0.2,0,0.2,0S14,76,14.1,75.9l0.2,0.1
	c0.2-0.4-0.5-0.6-0.6-1c0.3,0,0.7-0.2,0.8-0.5h0.1c0.1-0.5-0.4-0.8-0.6-1.3c0.6-0.3,0.2-0.9,0.6-1.4c-0.2,0-0.3,0-0.5-0.1
	c0.1-0.1-0.4-0.3,0.1-0.3l0,0c0.5-0.1,0.4-0.3,0.4-0.5h-0.6c0.9-0.4-0.4-1.2,0.5-1.4c-0.2-0.1-0.2-0.2-0.3-0.3h0.4
	c0.1-0.3,0.1-0.5,0.1-0.8l0.2,0.1c0-0.2-1-0.3-1-0.4h0.5c0-0.4,0.4-0.7,0-1.1c0.1,0,0.2,0,0.2,0.1c0-0.2,0.4-0.7-0.4-0.6
	c0.5,0,0-0.4-0.2-0.6h0.3c-0.4-0.2-0.6-0.2-0.7-0.4c0,0,0.3,0,0.2,0c0.2-0.2-0.3-0.1-0.1-0.4c0.1,0,0.1,0.1,0.2,0.1
	c0-0.2-0.1-0.2-0.4-0.3s0.1-0.5,0.4-0.6c-0.2,0-0.4,0-0.4-0.2c0.1,0,0.2,0,0.2,0c0.1-0.2,0.1-0.4-0.1-0.5c-0.1-0.1-0.2-0.2,0-0.4
	c0.1-0.1,0.1-0.1,0.2-0.2c0,0.2,0,0.5-0.1,0.7c0.3-0.2,0.4-0.5,0.8-0.5c-0.2-0.2-0.8-0.2-0.6-0.7l0.1-0.1l0,0c0-0.1,0-0.1-0.1-0.2
	c0.1-0.1,0.1-0.2,0.1-0.4c0.3-0.3,0.1-0.5,0.1-0.7c-0.3,0.4-0.3,0.2-0.6,0.7c0,0,0,0,0.1,0.1s0,0,0,0l0,0c0,0.1,0,0.2,0,0.3
	c-0.2,0-0.3,0.1-0.1-0.3l-0.6,0.5c0.3-0.5,0.6-0.9,0.8-1.4c0-0.1,0.1-0.2,0.1-0.2c-0.7,0.3-1.4,0.8-1.9,1.5c-0.1,0.1,0-0.2,0-0.3
	s0.2-0.1,0.3-0.2c-0.3,0.3-0.8,0.3-0.9,0.9c-0.2-0.1,0.3-0.5-0.1-0.3l0.1-0.2c-0.4-0.3-0.8,0.2-1.1,0.6c-0.1,0.2-0.3,0.3-0.4,0.5
	c-0.1,0.1-0.3,0.1-0.5-0.1c0.1,0,0.1,0.1,0.1,0.1C8.8,63,8.3,64,7.4,63.6c-0.2-0.1-0.2,0.2-0.2,0.5L7,63.7l-0.1,0.5
	c-0.2,0.4-0.8-0.7-1,0l0.1,0.2c-0.2,0-0.4,0.3-0.4,0c0,0,0,0.3-0.1,0.2l-0.1-0.2l-0.2,0.4c-0.3,0-0.2-0.7-0.6-0.7
	c-0.1,0.2-0.2,0.5-0.1,0.8c0.1,0,0.2,0.1,0.2,0.2l-0.1,0.1c0.2,0.6,0.2,1.1,0.7,1.4l0.1-0.4l0.2,0.2l-0.2,0.1c0.2,0.2,0.2,0,0.2-0.2
	c0,0.1,0.1,0.2,0.2,0.3v-0.6c0.1,0.2,0,0.4,0.2,0.5c0-0.3-0.3-0.4-0.2-0.7c0.2,0.2,0.2,0.4,0.3,0.2c0,0.1,0,0.2,0,0.3
	c0-0.2,0.3-0.2,0.2-0.5c0.2,0.3,0.3-0.2,0.5,0.3c0-0.1,0-0.5,0.2-0.5c0,0.7,0.4-0.1,0.6,0.6c-0.1-0.6,0.4-0.4,0.5-0.8
	c0,0,0,0.2,0,0.1c0.1,0,0.2,0.2,0.4,0.2c-0.1-0.5,0-0.6,0-1c0.3,0.4,0.1,0.6,0.3,1c-0.1-0.4,0.1-0.5,0-0.8c0.2,0.1,0.3,0.3,0.3,0.4
	C9,65,9.2,65.5,9.2,65.1c0.3,0.2,0.2,0.5,0.4,0.3C9.9,65.5,9.8,65.8,9.8,65.8z M11.9,64.5L11.9,64.5L11.9,64.5z M11.9,64.8
	c0,0,0-0.1,0-0.1c0.1-0.1,0.2-0.2,0.2-0.1S12,64.7,11.9,64.8z M14.3,61.7c0,0.1,0,0.2-0.1,0.3s0-0.1,0-0.2h-0.1
	C14.2,61.8,14.2,61.7,14.3,61.7z"/>
<path class="st0" d="M13.8,62L13.8,62l-0.1,0.2L13.8,62L13.8,62z"/>
<polygon class="st0" points="11.2,69.9 11.3,69.9 11.2,69.8 "/>
<path class="st0" d="M12.1,103C12.1,103,12.1,103,12.1,103L12.1,103z"/>
<path class="st0" d="M12,104l-0.1,0.1C11.9,104.1,12,104,12,104z"/>
<path class="st0" d="M11.5,92.7L11.5,92.7C11.4,92.6,11.4,92.7,11.5,92.7z"/>
<path class="st0" d="M12.3,96.3c-0.1,0-0.1-0.1-0.2-0.1C12.1,96.2,12.1,96.3,12.3,96.3z"/>
<path class="st0" d="M12.1,96c-0.1,0.1-0.1,0.1,0,0.2S12.2,96.1,12.1,96z"/>
<path class="st0" d="M11.9,108.2L11.9,108.2C11.8,108.1,11.8,108.2,11.9,108.2z"/>
<path class="st0" d="M11.8,106.7c0,0.1-0.3,0.2-0.2,0.3h0.1C11.6,107,12,106.8,11.8,106.7z"/>
<path class="st0" d="M13.4,105.5l-0.1,0.2c0.1,0,0.3-0.1,0.4,0C14,105.4,13.3,105.8,13.4,105.5z"/>
<path class="st0" d="M13.6,104.7c0.1,0.1,0.2,0,0.3,0C13.7,104.6,13.7,104.6,13.6,104.7z"/>
<path class="st0" d="M13.6,98.9h0.3C13.8,98.8,13.8,99,13.6,98.9z"/>
<polygon class="st0" points="11.9,97.8 11.8,97.9 12,98 "/>
<polygon class="st0" points="14.2,97.2 14.2,97.2 14.1,97.1 "/>
<path class="st0" d="M14.1,87.6h-0.4C13.8,87.7,14.2,87.7,14.1,87.6z"/>
<path class="st0" d="M13.7,83.4c0.2,0,0.3-0.2,0.1-0.2C13.8,83.3,13.6,83.4,13.7,83.4z"/>
<polygon class="st0" points="14.3,71 14.4,71.1 14.3,70.9 "/>
<path class="st0" d="M105.8,80.6c-0.1,0.1,0,0.3,0.2,0.3l0.2-0.4L105.8,80.6z"/>
<path class="st0" d="M107.8,81.3c0.3-0.2,0.8-0.5,0.5-0.9c-0.3,0.4-0.4,0.2-0.8,0.7c-0.3,0-0.5-0.1-0.5-0.3
	c-0.1,0.1-0.4-0.1-0.6,0.2c0.4,0.3,0.9,0.3,1.4,0.1C107.9,81.2,107.8,81.3,107.8,81.3z"/>
<path class="st0" d="M115.3,75.4l0.1,0.1C115.4,75.5,115.4,75.5,115.3,75.4z"/>
<path class="st0" d="M98.8,68.5c0.1,0,0.2,0,0.2,0S98.8,68.5,98.8,68.5z"/>
<path class="st0" d="M96,67.2l0.2,0.1C96.1,67.2,96,67.2,96,67.2z"/>
<path class="st0" d="M115.3,75.4l-0.3-0.3C114.9,75.2,115.1,75.3,115.3,75.4z"/>
<path class="st0" d="M111.7,80.4c-0.1,0-0.2,0.1-0.3,0.1h0.2C111.7,80.4,111.7,80.4,111.7,80.4z"/>
<path class="st0" d="M124,79.7l0.2,0.1l0.5,0.1L124,79.7z"/>
<path class="st0" d="M125.1,82.3c0.2,0-0.6-0.3-0.9-0.5c0.3,0.1,0.3,0.2,0.2,0.2C124.5,82.2,124.8,82.2,125.1,82.3z"/>
<path class="st0" d="M118.7,76.7c0,0,0-0.1,0-0.1C118.7,76.6,118.7,76.6,118.7,76.7z"/>
<path class="st0" d="M122,96.3L122,96.3C122,96.4,122,96.4,122,96.3z"/>
<path class="st0" d="M124.2,103.3L124.2,103.3l-0.2,0L124.2,103.3z"/>
<path class="st0" d="M90.7,65.3L90.7,65.3C90.8,65.3,90.7,65.3,90.7,65.3z"/>
<path class="st0" d="M41.6,66.9c-0.6-0.3,1-0.3,0.1-0.7C41.8,66.3,40.9,66.7,41.6,66.9z"/>
<path class="st0" d="M111.9,80.4h0.2C112.1,80.4,112,80.4,111.9,80.4z"/>
<path class="st0" d="M77.8,63c0,0.1,0.1,0.1,0.1,0.2C77.9,63.2,77.9,63.1,77.8,63z"/>
<path class="st0" d="M87.3,65.2L87,65.1C87.1,65.1,87.2,65.2,87.3,65.2z"/>
<path class="st0" d="M72.8,62.9c-0.1-0.1-0.2-0.1-0.3-0.1l0,0C72.5,62.8,72.7,62.8,72.8,62.9z"/>
<path class="st0" d="M67.6,62.5L67.6,62.5l0.3,0.1L67.6,62.5z"/>
<path class="st0" d="M110.4,85.1c0,0.1,0,0.3,0,0.4C110.5,85.3,111.2,85.7,110.4,85.1z"/>
<path class="st0" d="M111.7,80.6c0-0.1,0.1-0.1,0.2-0.2h-0.2C111.7,80.4,111.7,80.5,111.7,80.6z"/>
<path class="st0" d="M72.3,65.6l-0.8-0.1C71.8,65.5,72,65.6,72.3,65.6z"/>
<path class="st0" d="M76.4,69.5h0.2C76.5,69.5,76.5,69.5,76.4,69.5z"/>
<path class="st0" d="M69.1,65.3c-0.1-0.1-0.3-0.2-0.4-0.3c0,0-0.1,0-0.1,0.1L69.1,65.3z"/>
<path class="st0" d="M115.2,88.4c-0.6-0.6-0.6,0.1-0.9,0.2c-0.8-0.6-0.1-0.5-0.2-0.9c-0.5-0.3-1.2-0.3-1.5-0.6c0-0.1,0-0.2,0.1-0.2
	c-0.7-0.1-1.5-1.2-2.3-1.2c0,0,0-0.1,0-0.2c0,0.2-0.1,0.4-0.3,0.6c-0.3-0.2-0.7-0.2-0.6-0.5c0.2,0.1,0.2,0.1,0.4,0l-0.4-0.1
	c0-0.5,0.5,0.2,0.7-0.1c-0.7-0.3-1.6-0.5-1.9-1c0.1-0.4,1.1,0.6,0.8-0.1l0.6,0.6c-0.2-0.9,0.4,0.3,0.3-0.6c-0.9-0.8-1.2-0.6-2-1.3
	c-0.3,0-0.1,0.3-0.5,0.4c-1.6-0.5-0.5-1.6-1.8-1.8c-0.4,0.1-0.8,0.4-1.3-0.2l0.5-0.2c-0.9-0.6-0.9,0.2-1.7-0.6
	c0.3-0.1,0.8,0.3,0.7,0.2c-0.4-0.7-0.6,0-1.1-0.3l0.1-0.4c-1-0.6-2.3-0.9-3.5-1.4c0.1-0.1,0.4-0.1,0.2-0.3c-0.8-0.3-1.6-0.7-2.3-1.1
	c-0.8-0.4-1.4-1-2.1-1.4l-0.7,0.1c-0.1-0.1-0.2-0.2,0-0.3c-0.5-0.4-0.1,0.2-0.4,0.2s-0.3-0.4-0.1-0.4c-0.7-0.1-1.4-0.2-2.1-0.3
	c-0.7-0.2-1.4-0.5-1.9-0.9h0.2c-0.8-0.5-1.2,0.3-1.8-0.3h0.2c-0.9-0.4-1.8-0.7-2.7-1c-0.8-0.3-1.6-0.7-2.3-1.2
	c-0.4,0.4-1.8-0.8-2.1-0.2c-0.6-0.6-1.3-1-2-1.4c-0.4-0.1-0.7,0.3-1.2,0.2l0.1-0.4l-0.8,0.2l-0.2-0.5h-0.5c0.2,0.1,0.3,0.3,0.3,0.4
	c-0.8,0-1.7-0.7-1.7-0.9L73.4,69c0.1-0.1,0.4-0.1,0.6-0.2c-1,0.2-0.1-0.4-1-0.3c0.1,0.1-0.1,0.2-0.2,0.3c-0.6-0.4-1.3-0.7-2.1-0.8
	l0.2-0.2c-1.3-0.4-2.7-0.4-4.2-0.8c0.5,0.2,0.3,0.6-0.2,0.6l-0.1-0.4c-0.3,0.2,0.4,0.2-0.2,0.4c-0.5-0.2-0.3-0.5,0.1-0.6h-0.7
	c0-0.1,0.2-0.2,0.2-0.3c-0.3,0.2-1.1-0.6-1.5-0.3v-0.1c-1.5-0.2-2.1-0.2-3.3-0.4c-0.1,0.3-0.5,0.2-0.9,0.4c-0.9-0.3-1.9-0.6-2.8-0.8
	c-0.8,0.1-0.3,0.3-0.6,0.4c0-0.3-1.1-0.4-0.5-0.6c-1.1-0.1-2.2-0.1-3.3-0.1c0.2,0.2,0.3,0.2,0.2,0.3c-0.3,0-0.6-0.2-0.6-0.3h0.1
	c-1.8,0.3-4-1.3-5.5-0.8h0.1l-1.5,0.2c-0.7-0.1,0.4-0.2-0.1-0.4c-1.6,0.4-2.5-0.3-3.9,0c-0.3-0.3-0.8-0.5-1.2-0.5l0.4,3.3
	c1.1-0.2,2.6-0.8,3.6-0.6l-0.1-0.2c0.3-0.3,0.4,0,0.7,0.1c-0.1-0.2-0.4-0.1-0.2-0.3c2.9-0.7,6.1-0.5,9.1-0.5c1.1,0,0.6-1.2,2-0.7
	l-0.4,0.4c2.2-0.6,4.6-0.2,6.8-0.5c-0.1,0.1-0.1,0.2-0.3,0.2c0.5,0.3,1.7,0,1.7-0.2c0.3,0,0.1,0.2,0.3,0.3c0.5,0.2,1.2-0.3,1.4,0
	c0,0-0.1,0.1-0.2,0.1c0.3-0.1,1.4,0.1,1.1-0.3c0.8,0.2,1.6-0.1,2.2,0.2c0.4-0.4,1.4,0.3,1.6-0.2c-0.1,0.6,1.4,0.6,2,0.3
	c-0.2,0.2,0.4,0.2,0.2,0.4c0.6,0.1,1.1,0,1.1-0.3c1,0.8,2.3-0.3,2.8,0.6c0.9,0,1.8,0,2.6,0s1.6,0.1,2.4,0.1
	c-0.1,0.5-1.8-0.2-1.8,0.4c1.5,0,2.5-0.3,3.9,0.1c0.4,0.1-0.3,0.2-0.4,0.3c1.5,0.1,2.9,0.6,4.2,0.6c0,0-0.2,0.1-0.3,0.1
	c0.3,0,0.6,0.2,0.6,0h-0.3C87,67,88.5,67,88.6,66.8c-0.6,0.6,1.3,0.5,0.3,1.2c0.2,0,0.4-0.1,0.4-0.2c0.2,0.1,0.3,0.2,0,0.3
	c1,0.1,0.7-0.2,1.5,0c0,0.1-0.2,0.1-0.3,0.2c0.5-0.2,1.1-0.2,1.7,0c-0.1,0.1,0,0.2-0.2,0.1c1.2,0.3,2.2,0,3.5,0.6
	c-0.5,0.4,0.4,0.3,0.3,0.8l0.8,0.1l-0.2-0.3c0.6,0.2,1.3,0,1.8,0.4h-0.5l1.2,0.3l-0.6-0.4c0.7,0,0.1-0.6,0.9-0.2
	c-0.2,0,0.6,0.2,0.8,0.6l0,0c0.4-0.1,0.8,0,1.1,0.2c0.1,0.2-0.3,0.4-0.2,0.6c0.4-0.2,1.5,0.4,2,0.2c-0.1,0.1-0.2,0.2-0.2,0.3
	l0.4-0.2c0.2,0.2,0.3,0.2,0.2,0.4c0.8,0.4-0.1-0.7,0.8,0c-0.1,0-0.1,0-0.2,0c1,0.5,2,0.6,2.9,1.1c0.1,0.5-0.8-0.2-0.7,0.3
	c1.3,0.5,2.9,0.6,4.2,1.3l-0.2-0.2c0.4-0.5,0.8,0.7,1.6,0.7c-0.2,0-0.3,0.2-0.3,0.2c0.4,0.2,0.9,0.4,1.4,0.6l1.8,0.6l-0.2,0.1
	c0.6,0.4,1.2,0.7,1.8,1c0.2-0.1,0.5,0.1,0.4-0.2c0.3,0.4,0.6,0.7,1.1,0.9c0.2,0.1,0.4,0.2,0.6,0.3l0.2,0.1h0.1h0.2
	c0.3,0.1,0.7,0.2,1,0.3c0.3,0.2,0.5,0.3,0.4,0.5c-0.1-0.1-0.5-0.1-0.4,0c0.3,0.1,0.7,0.2,1,0.4c0.6,0,0.3,0,0.6-0.2
	c0.5,0.1,1,0.2,1.4,0.4c-0.3-0.1-0.6-0.2-0.9-0.2c-0.2,0-0.3,0.1-0.4,0.1c0.2,0,0.5,0.1,0.7,0.1c-0.4,0.1,0,0.1,0.5,0.2
	s1.1,0.2,1,0.4l-0.5-0.1c0.6,0.2,1.1,0.4,1.7,0.7c-1.1-0.2-0.9-0.3-1.8-0.5c0.2,0.1,1,0.3,1.6,0.6l0.2,0.1l0,0l0,0
	c-0.2,0-0.5,0-0.7-0.1c0,0,0-0.1,0-0.1l0,0l0,0h-0.1l-0.2-0.1h-0.2h-0.1h-0.1l-0.4-0.1l-0.5-0.1h-0.5l0,0l-1.1-0.2l0.4,0.1
	c1.1,0.4,0.8,0.5,0.5,0.5s-0.7,0-0.6,0.2c0-0.2-0.2-0.4-0.4-0.4c-0.2-0.1-0.5-0.2-0.7-0.3c-0.3-0.1-0.6-0.2-0.8-0.3
	c0.1,0.2-0.1,0.1-0.2,0s-0.3-0.1-0.2,0.2c-0.1-0.1-0.3,0-0.4-0.3c-0.2,0.1,0.2,0.2,0.3,0.4c-0.1,0.2-0.6,0.1-0.9,0
	c-0.6-0.2-1.3-0.1-1.9,0.1c-1.1,0.2-1.3,0.6-2.4,0.8c-0.3-0.2,0.3-0.4,0.3-0.4c-0.5-0.2-1-0.2-1.5,0c0.1-0.1,0-0.2-0.2-0.3
	c-0.4,0-0.3,0.4-0.8,0.3c0.1-0.2,0.3-0.4,0.4-0.5c-0.5,0.1-1,0.3-1.5,0.4c-0.1-0.2,0.3-0.3,0.5-0.4c-0.6,0.1-1.5,0.2-1.7,0.5
	l0.4,0.1c-0.2,0-0.1-0.3,0-0.3c0.5-0.3,0.7,0.1,0.8,0.2l-0.4,0.1c0.4,0.7,1.5-0.1,2.3-0.1l-0.3,0.5l0.8-0.4c0.2,0.1,0.3,0.4-0.1,0.5
	c0.5,0.2,0.5-0.2,0.9,0.1c0,0,0,0.1,0,0.1l0.5-0.2c-0.1,0.1,0.1,0.4-0.2,0.3c1,0.3,1.5-0.4,1.9,0h-0.1c1.3-0.2,0.1-0.4,1.1-0.8
	L117,82l0.1-0.4c0.1,0,0.4,0,0.4,0.2c0.5-0.2-0.1-0.2,0.2-0.4c0.4,0.1,0.8,0.2,1.3,0.1c0.4,0,0.8,0.1,1.2,0.3c0-0.3-0.9-0.2-0.3-0.4
	c0.4,0.3,0.7,0.3,0.9,0.2c0.3-0.1,0.6-0.1,0.9,0c0.4,0.3-0.7,0.2,0.6,0.4c-0.2-0.3,0.1-0.2,0.7-0.2c0.5,0.1,1,0.2,1.6,0.2
	c-0.5-0.2-0.3-0.3,0.1-0.3c0.5,0,0.9,0,1.3-0.1c0.2,0,0.4,0.1,0.6,0.1h0.5h0.1l0,0l0,0l-0.1-0.1c-0.3-0.3-0.8-0.6-1.1-0.9l0.2,0.1
	c-1-0.3-2-0.7-2.9-1.2c0.6,0,1.1,0.2,1.7,0.4l-0.7-0.4c-0.5-0.1-0.9-0.3-1.3-0.5l0.8,0.1c-0.6-0.3-1.1-0.5-1.7-0.8
	c-0.6-0.2-1.1-0.5-1.6-0.9c-0.2,0.1-0.2,0.3-0.3,0.5s-0.4,0.2-0.9,0.1c0.1-0.2,0.4-0.3,0.7-0.2c-0.1,0-0.4-0.1-0.5-0.2
	c0.2,0,0.4,0,0.7,0c-0.4-0.3-0.4,0-0.8-0.2c0.2-0.2-0.2-0.3,0-0.4c0.1,0,0.3,0.3,0.5,0.3c-0.2-0.1-0.4-0.3-0.6-0.5l-0.1-0.1
	l-0.1-0.1c0-0.1-0.1-0.1-0.1-0.2c0,0.1-0.2,0.3-0.4,0.2c-0.7-0.3-0.1-0.4-0.4-0.7c-0.2,0.1-0.6-0.3-0.8,0c-0.2-0.1-0.2-0.3-0.2-0.4
	c-0.4,0-1.6-0.8-1.4-0.2l0.1,0.1h-0.1l0,0c-1.3-0.2-2.2-1.3-3.5-1.7v-0.1c-0.7-0.3-1.4-0.5-2.1-0.6c-0.2-0.1-0.4-0.4-0.2-0.5
	c-0.5,0-1-0.2-1.4-0.5c0.6,0-0.1-0.2,0.6,0.1c-0.7-0.4-0.7-0.6-1.6-0.6c0.4-0.2-0.4-0.6-0.7-0.6l0.4,0.4c-0.3-0.1-0.7-0.3-1-0.4
	l0.3-0.3c-1.2-1-2.9-0.2-3.7-1.4c-0.5,0.1,0.7,0.5,0.3,0.7c-0.6-0.3-1.1-1.1-1.3-1.2c-0.8-0.5-1,0.3-1.9-0.2
	c0.1,0.2,0.1,0.6-0.7,0.5c-0.6-0.3-0.6-0.8-0.2-0.8c0.2,0,0.2,0.1,0.2,0.2c0.2,0,0.5,0,0.3-0.2l-0.1,0.1c-0.3-0.2-1.2-0.5-0.9-0.7
	c-0.6,0-0.3,0.2,0.1,0.3c-0.7-0.3-1.4-0.6-2.2-0.8c0.1,0.1,0.2,0.3,0.1,0.3c-1.2-0.6-0.7,0.1-1.6-0.1C94.2,67.1,95,67,94,66.9
	c-0.5-0.3,0-0.4,0.2-0.5c-0.9,0-1.5-0.6-1.9-0.8h0.5c-0.2,0-0.5,0-0.7-0.1l0.2,0.3c-0.2-0.1-0.5-0.2-0.4-0.3
	c-0.3,0.1,0.1,0.5-0.5,0.6c-0.3-0.2-1.1-0.1-1.1-0.5c1,0.4,0-0.4,0.9-0.2c-0.2,0-0.4-0.1-0.6-0.2c0-0.1,0-0.1,0.1-0.1
	c-0.9-0.6-0.6,0.3-1.6,0.1c0.2-0.2-0.2-0.5-0.3-0.4c0.4,0.1,0.1,0.4-0.3,0.5c-0.6-0.3-0.8,0-1.1-0.1l0.4,0.2c-0.2,0.2-0.5,0.1-1,0
	c0-0.2,0.4,0,0.3-0.1c-0.6,0.2-1.1-0.6-1.9-0.5c-0.3-0.2,0-0.4-0.2-0.6c-0.9,0.1-0.8-0.5-1.8-0.4c0.2,0.3,0.2,0.3-0.4,0.4l1.5,0.1
	l-1,0.2c0.4,0.1,0.9,0,1.2,0.1c-0.5,0.2-0.4,0.1-0.3,0.4c-0.5-0.5-1.2,0-1.8-0.4l0.2-0.7c-1-0.5-1.9,0.1-3.2-0.3l0.4,0.2
	c-0.2,0.2-0.8-0.1-1.3,0c0.1-0.2-0.2-0.4-0.3-0.5c0,0.2-1-0.2-1.2,0.3l-0.6-0.4c-1.1-0.3-1.3,0.5-2.3,0.3c0.3-0.2-0.1-0.5,0.6-0.6
	c-0.3,0-0.7-0.1-0.7,0c-0.2-0.2-1,0.2-1.3,0c-0.2,0.1-0.2,0.3-0.6,0.3c0,0,0-0.1,0-0.1s-0.6,0.1-0.3,0.4c-0.6-0.4-1.3-0.6-2-0.5
	c-0.7,0.1-1.3-0.1-1.9-0.4c-0.8,0-1.7,0.1-2.4,0.1c0-0.1,0-0.1,0.1-0.1c-1-0.2-0.6,0.7-1.7,0.4c-0.5-0.4,0.6-0.2,0.2-0.3
	c-0.1-0.8-1.3,0.1-2-0.4h0.2c-0.6-0.3-1.4,0.3-2.3,0.2c0,0,0-0.1,0-0.1c-0.8,0.4-1.8,0.6-2.7,0.7c0.3-0.3,0.4-0.2,0.2-0.5
	c-0.4,0.1,0.1,0.5-0.7,0.6c-0.3-0.2-0.8-0.3-0.9-0.6h0.8c-0.4-0.4-1,0-1.4,0v-0.2C54,62.6,54,63,52.8,63.1l0.1,0.1
	c-0.6,0.5-0.6-0.2-1.2,0.2L51.5,63c-0.7,0.3-1.5,0.6-2.3,0.8c0.6-0.4,1.2-0.7,1.9-1c-0.4,0-1.5,0.2-1.7,0.4c0.2-0.1,0.4-0.2,0.6-0.1
	c-0.6,0.5-1.3,0.7-2,0.8c0-1-2.3,0-3-0.6c-1.5,0.6-3,0.4-4.8,0.8l0.3,2.8h0.1c-0.1-0.1-0.1-0.1-0.1-0.2l-1.4-3.3l1.1,0.9
	c0.1,0.1,0.1,0.1,0,0.2l0.2,2.1c0.1-0.1,0.6,0.1,0.6-0.4c0.4,0,0.6,0,0.6,0.1l1.2,0.5c0.3,0.2-0.4,0.1-0.4,0.3
	c0.9,0.1,0.4,0.3,0.9,0.6c-0.1-0.3,0.3-0.4,0.8-0.2l-0.7-0.4c1.3-0.3,1,0.7,2.3,0.4l-0.4,0.2c0.3,0,0.9,0,1.5,0
	c0.5,0.1,1.1-0.1,1.5-0.3c0.1,0.1,0.2,0.3,0,0.3c1.5,0.2,3.5-0.3,4.7,0.2l-0.1,0.2c0.3,0,0.5-0.3,0.9,0c0,0.1-0.1,0.2,0,0.2
	c0.4-0.1,0.8-0.1,1.2,0l-0.3,0.2c1.5,0.4,2.4-0.2,3.7-0.1c-0.1,0.5,1.1,0.9,1.7,1.1v0.1c1.7,0.4,3,0,4.7,0.1
	c0.9,0.8,3.3,0.9,4.9,1.6c-0.2-0.2,0.1-0.4,0.4-0.4c0.3,0.2,1.1-0.1,1,0.3h-0.1c0.2,0.5,1,0.6,1.6,0.8l0.2-0.6
	c1.3,1.2,4.2,0.7,4.8,1.8c0.4-0.1,0.9,0.1,1.3,0l-0.1,0.3c0.9,0.4,1.8,0.7,2.8,0.9l-0.3,0.2c0.7,0.2,1.2-0.7,1.9-0.5v0.6
	c1.2,0.4,2.3,1.3,3.7,1.3c-0.1,0.1-0.2,0.2-0.3,0.1c0.6,0.2,2.1,1.2,2.1,0.4c-0.2,0.4,1.2,0.5,2,0.6l-0.2,0.3
	c0.5-0.2,1.1-0.3,1.6-0.1c0.2,0.1,0,0.3-0.2,0.1c0.5,0.4,0.6-0.1,1.2,0.4l-0.4,0.1c0.6,0.3,0.6,0.2,1.1,0.1s1.1,0.6,1.1,0.9
	c0.3-0.2,0.7-0.2,0.9,0.1c0,0.1-0.2,0.1-0.2,0.1c0.9,0.7,1.7,0.4,2.2,1c0,0.1,0,0.2,0,0.2c-0.5-0.2-0.9-0.5-1.4-0.7
	c-0.1,0.3,0.5,0.7-0.2,0.8c0.8-0.1,1.6,0.1,2.3,0.5c0,0,0,0.1,0,0.1h-0.1c0.1,0.1,0.3,0.2,0.4,0.2c0.1,0.1,0.3,0.3,0.5,0.4
	c-0.1,0.3,0.7,0.5,1,0.7c0.1-0.3,0.5,0,0.3-0.5c0,0.1-0.1,0-0.3-0.1c0,0-0.1,0-0.2,0l0,0l-0.8-0.4c0.4-0.1,0.7,0.1,0.9,0.4
	c0.2-0.1,0.5-0.2,0.7-0.2c0.2,0.7,0.9,1.4,0.8,1.7c0.5,0.2,1.1,0.5,1.7,0.7c0.5,0.3,1,0.4,1.6,0.3c0.3,0.1,0.2,0.3,0.2,0.5
	c-0.2,0-0.4-0.2-0.5-0.1c0.6,0.2,1.6,1,2,0.7c0.5,0.6-0.6,0.1,0.3,0.7H107c0.6,0.7,1.5,1.3,2.4,1.5c0.9,0.2,1.7,0.8,2.3,1.6
	c-0.1-0.2-0.1-0.2-0.1-0.3c1,1,2,1.9,3.1,2.8c0.5,0.5,1,0.9,1.5,1.4c0.5,0.5,0.9,1.1,1.2,1.7c0.4,0.7,0.7,0.5,1.1,0.7l-0.2,0.4
	l0.8,0.3c1,0.7,0.5,2.1,1.8,2.9l0.1-0.3c0.3,0.4,1,1.3,0.7,1.3c0.1,0,0.3,0,0.3,0.2l-0.2,0.1c0.3,0.3,0.6,0.6,0.9,0.9
	c0.3,0.9-0.7,0.2-0.1,1.5c0.3,0.4,1.1,1,1.2,0.8s-0.1-0.5,0.1-0.6l0.3,0.4c0.3,0,0.6-0.1,0.8-0.2c0.2-0.1,0.4-0.5,0.3-1.1l-0.7-0.6
	l0.1-0.4c0.1,0.2,0.2,0.4,0.3,0.7c0-0.5-0.3-0.6-0.6-0.8c0.1-0.1,0.1-0.3,0.1-0.5l-0.9-0.5c0.1-0.2,0.6,0.1,0.4-0.5
	c-0.4-0.2-0.2,0.6-0.7,0.1c0-0.5,0.2-0.5-0.2-0.8c0.1-0.1,0.2-0.1,0.4,0c-0.4-0.3-0.7-0.9-1.1-0.9c0-0.5-0.9-1.1-0.4-1.4
	c-0.4-0.1-0.7-0.4-1-0.6c1,0.2-0.9-1.2-0.2-1.5c-0.8,0-1.4-1.3-2.3-1.8c0.1,0,0.2,0,0.2,0.1c-0.2-0.3-0.4-0.6-0.5-1
	c-0.4,0.3-1-0.2-1.6-0.3c-0.1-0.8,0.7-0.1,0.8-0.6c-0.2,0.3-1.1-0.5-1.2-0.1c-0.2-0.6-0.2-0.4-0.1-0.9c-0.5,0.4-0.4-0.2-1-0.2
	c-0.3-0.7,0.2-0.5-0.5-0.9C114.6,88.1,115.2,88.4,115.2,88.4z M99.3,78.7L99.3,78.7l0.3,0.2L99.3,78.7z M97.9,78
	c0.2,0.1,0.4,0.2,0.6,0.3c0,0.1-0.1,0.2-0.2,0.2c0,0-0.1,0-0.1,0C98.4,78.4,98.1,78.2,97.9,78z M99.7,81.6c-0.2-0.1-0.3-0.2-0.3-0.2
	l0.4,0.2l0,0C99.7,81.6,99.7,81.6,99.7,81.6L99.7,81.6z"/>
<path class="st0" d="M100.3,81.5C100.3,81.5,100.3,81.5,100.3,81.5l0-0.1h-0.1L100.3,81.5z"/>
<path class="st0" d="M115.5,75.6L115.5,75.6C115.5,75.6,115.5,75.6,115.5,75.6C115.5,75.6,115.5,75.6,115.5,75.6z"/>
<polygon class="st0" points="78.1,69.8 78.1,69.9 78.2,69.8 "/>
<path class="st0" d="M121,79.8c-0.1,0-0.1,0-0.2,0H121z"/>
<path class="st0" d="M121.7,80.7l-0.7-0.1L121.7,80.7z"/>
<path class="st0" d="M119.6,80.5l0.3,0.1l0,0L119.6,80.5z"/>
<path class="st0" d="M87,67.5h-0.1C86.6,67.5,86.8,67.5,87,67.5z"/>
<path class="st0" d="M99.9,70.2c-0.2,0-0.3,0-0.5,0C99.7,70.4,99.8,70.4,99.9,70.2z"/>
<path class="st0" d="M98.9,70.1c0.2,0.1,0.4,0.2,0.6,0.2C99.3,70.2,99.1,70.1,98.9,70.1z"/>
<path class="st0" d="M109.2,80.3h-0.1c0,0,0,0,0,0.1L109.2,80.3z"/>
<path class="st0" d="M109.1,80.4h-0.2C109,80.4,109.1,80.4,109.1,80.4z"/>
<path class="st0" d="M108.6,80.5l0.3-0.1C108.8,80.4,108.7,80.4,108.6,80.5z"/>
<path class="st0" d="M113,80.5v-0.1C113,80.4,113,80.4,113,80.5z"/>
<path class="st0" d="M114.1,80.4c-0.3,0-0.7-0.3-1-0.2v0.1C113.2,80.2,113.8,80.7,114.1,80.4z"/>
<path class="st0" d="M119.2,82l-1.2-0.1c0.2,0.1,0.6,0.3,0,0.3c0.9,0.2,0.8,0.1,0.7,0S118.4,82,119.2,82z"/>
<path class="st0" d="M123.4,82.2c-0.6,0.1,0.4,0.2,0.5,0.3C124.1,82.3,124.2,82.3,123.4,82.2z"/>
<path class="st0" d="M109.6,72.5l0.2-0.3C109.4,72.1,109.7,72.4,109.6,72.5z"/>
<polygon class="st0" points="105.2,72.5 105.5,72.8 105.8,72.6 "/>
<polygon class="st0" points="103.7,69.6 103.9,69.6 103.2,69.5 "/>
<path class="st0" d="M68.5,62.3l0.1,0.4C68.9,62.6,69,62.2,68.5,62.3z"/>
<path class="st0" d="M53,62.8c-0.2-0.2-0.6-0.2-0.9-0.1C52.4,62.7,52.7,62.8,53,62.8z"/>
<polygon class="st0" points="73.4,71.7 73,71.8 73.6,71.8 "/>
<path class="st0" d="M69.1,16c0-3.5,0-4.1,0-4.9S68.8,10,68,9.8c-0.3,0-0.5-0.1-0.8-0.1c-0.1,0-0.2,0-0.2-0.1s0.1-0.2,0.4-0.2
	c1,0,2.4,0.1,2.6,0.1s1.6-0.1,2.2-0.1c0.2,0,0.4,0,0.4,0.2s-0.1,0.1-0.2,0.1c-0.2,0-0.4,0-0.6,0.1c-0.6,0.1-0.8,0.5-0.8,1.3
	s0,1.4,0,4.9v3.2c0,3.2,0.7,4.6,1.7,5.6c0.9,0.9,2.1,1.4,3.4,1.3c1.4,0,2.6-0.6,3.5-1.6c1-1.4,1.3-3.2,1.3-5.6V16c0-3.5,0-4.1,0-4.9
	s-0.3-1.1-1-1.3c-0.3,0-0.5-0.1-0.8-0.1c-0.1,0-0.2,0-0.2-0.1s0.1-0.2,0.4-0.2c1,0,2.3,0.1,2.4,0.1s1.2-0.1,1.9-0.1
	c0.2,0,0.4,0,0.4,0.2S84,9.8,83.9,9.8c-0.2,0-0.4,0-0.6,0.1c-0.6,0.1-0.8,0.5-0.8,1.3s0,1.4,0,4.9v2.4c0,2.4-0.3,5.1-2.1,6.7
	c-1.3,1.1-2.9,1.7-4.7,1.7c-1.7,0.1-3.4-0.5-4.8-1.6c-1.1-1.1-2-2.6-2-5.9L69.1,16z"/>
<path class="st0" d="M88.7,23.9c0,1.6,0.2,2,0.8,2.2c0.3,0.1,0.7,0.1,1,0.1c0.1,0,0.2,0.1,0.2,0.2c0,0,0,0,0,0
	c0,0.1-0.1,0.2-0.4,0.2c-1.1,0-1.9-0.1-2.1-0.1s-1,0.1-1.9,0.1c-0.2,0-0.3,0-0.3-0.2c0-0.1,0.1-0.2,0.1-0.2c0,0,0,0,0,0
	c0.3,0,0.6,0,0.8-0.1c0.5-0.1,0.6-0.7,0.6-2.4v-11c0-0.8,0.1-1,0.3-1s0.6,0.4,0.8,0.6s3.2,3.4,6.3,6.6c2,2,4.1,4.3,4.7,4.9l-0.2-9.6
	c0-1.2-0.1-1.7-0.7-1.8c-0.3-0.1-0.7-0.1-1-0.1c-0.1,0-0.2-0.1-0.2-0.2s0.2-0.1,0.4-0.1c0.9,0,1.8,0,2.1,0s0.9,0,1.7,0
	c0.2,0,0.4,0,0.4,0.1c0,0.1-0.1,0.2-0.2,0.2c-0.2,0-0.3,0-0.5,0c-0.7,0.1-0.7,0.5-0.7,1.7v11.2c0,1.3,0,1.4-0.2,1.4
	s-0.4-0.2-1.5-1.2c-0.2-0.2-3.1-3-5.2-5.2c-2.3-2.4-4.5-4.8-5.1-5.4L88.7,23.9z"/>
<path class="st0" d="M108.1,20.9c0,1.9,0,3.4,0.1,4.1c0.1,0.6,0.1,0.9,0.7,1c0.3,0,0.6,0.1,0.9,0.1c0.1,0,0.2,0.1,0.2,0.2
	c0,0,0,0,0,0c0,0.1-0.1,0.2-0.3,0.2c-1.1,0-2.4-0.1-2.5-0.1s-1.3,0.1-2,0.1c-0.2,0-0.3,0-0.3-0.2c0-0.1,0.1-0.2,0.2-0.2l0,0
	c0.2,0,0.4,0,0.6-0.1c0.4-0.1,0.4-0.5,0.5-1c0.1-0.8,0.1-2.3,0.1-4.1v-3.4c0-3,0-3.5,0-4.1s-0.2-0.9-0.6-1c-0.2,0-0.4-0.1-0.6-0.1
	c-0.1,0-0.2-0.1-0.2-0.2c0,0,0,0,0,0c0-0.1,0.1-0.1,0.3-0.1c0.7,0,1.9,0,2,0s1.4,0,2,0c0.2,0,0.3,0,0.3,0.1c0,0.1-0.1,0.1-0.2,0.2
	c-0.2,0-0.3,0-0.5,0c-0.5,0.1-0.7,0.4-0.7,1.1s0,1.1,0,4.1L108.1,20.9z"/>
<path class="st0" d="M120.3,11.7c4.5,0,7.9,2.7,7.9,7.2c0.1,4.2-3.3,7.8-7.5,7.8c-0.2,0-0.3,0-0.5,0c-4.1,0.2-7.5-2.9-7.8-6.9
	c0-0.2,0-0.4,0-0.6c0.1-4.2,3.5-7.5,7.7-7.5C120.2,11.7,120.2,11.7,120.3,11.7z M120.8,26c1.8,0,5.4-0.9,5.4-6.5c0-4.6-2.8-7-5.9-7
	c-3.3,0-5.7,2.1-5.7,6.2C114.5,23.2,117.2,26,120.8,26z M123.8,9c0.1,0.2,0,0.3-0.1,0.3c-0.2,0-0.4,0-0.7,0
	c-1.2,0.2-2.3,0.5-3.4,0.9c-0.1,0.1-0.2,0.1-0.3,0.1c-0.1,0-0.1-0.1-0.1-0.1c0,0,0,0,0,0c0-0.1,0-0.1,0.2-0.2
	c0.8-0.6,2.9-1.8,3.1-1.9c0.4-0.2,0.5-0.3,0.6-0.3s0.1,0,0.2,0.2C123.4,8.3,123.6,8.7,123.8,9z"/>
<path class="st0" d="M133.2,23.9c0.1,1.6,0.2,2,0.8,2.2c0.3,0.1,0.7,0.1,1,0.1c0.1,0,0.2,0.1,0.2,0.2c0,0,0,0,0,0
	c0,0.1-0.1,0.2-0.4,0.2c-1.1,0-1.9-0.1-2.1-0.1s-1,0.1-1.9,0.1c-0.2,0-0.3,0-0.3-0.2c0-0.1,0.1-0.2,0.2-0.2l0,0c0.3,0,0.6,0,0.8-0.1
	c0.5-0.1,0.6-0.7,0.6-2.4v-11c0-0.8,0.1-1,0.3-1s0.6,0.4,0.8,0.6s3.2,3.4,6.3,6.6c2,2,4.1,4.3,4.7,4.9l-0.2-9.6
	c0-1.2-0.1-1.7-0.7-1.8c-0.3-0.1-0.7-0.1-1-0.1c-0.1,0-0.2-0.1-0.2-0.2s0.2-0.1,0.4-0.1c0.9,0,1.9,0,2.1,0s0.9,0,1.7,0
	c0.2,0,0.4,0,0.4,0.1c0,0.1-0.1,0.2-0.2,0.2c-0.2,0-0.3,0-0.5,0c-0.6,0.1-0.7,0.5-0.7,1.7v11.2c0,1.3,0,1.4-0.2,1.4
	s-0.4-0.2-1.5-1.2c-0.2-0.2-3.1-3-5.2-5.2c-2.3-2.4-4.5-4.8-5.1-5.4L133.2,23.9z"/>
<path class="st0" d="M158.4,17.5c0-3,0-3.5,0-4.1s-0.2-1-0.8-1.1c-0.2,0-0.5,0-0.7,0c-0.1,0-0.1-0.1-0.2-0.2c0-0.1,0.1-0.1,0.3-0.1
	c0.9,0,2.2,0,2.3,0s1.5,0,2.7,0c2,0,5.6-0.2,8,2.2c1.3,1.3,1.9,3,1.9,4.8c0,2-0.8,3.9-2.1,5.4c-1.6,1.5-3.8,2.3-6,2.2
	c-0.9,0-1.9-0.1-2.8-0.1s-1.5-0.1-1.6-0.1h-0.8c-0.4,0-0.9,0-1.2,0s-0.3,0-0.3-0.2c0-0.1,0.1-0.2,0.1-0.2c0,0,0,0,0,0
	c0.2,0,0.4,0,0.6-0.1c0.4-0.1,0.4-0.5,0.5-1c0.1-1.4,0.1-2.8,0.1-4.1L158.4,17.5z M160.3,19.6c0,2,0,3.8,0,4.2
	c0,0.5,0.1,0.9,0.2,1.4c0.2,0.4,1,0.8,3.3,0.8c1.7,0,3.4-0.6,4.6-1.7c1.1-1.3,1.7-2.9,1.6-4.6c0-1.8-0.6-3.5-1.9-4.8
	c-1.9-1.9-4.1-2.1-6.4-2.1c-0.4,0-0.8,0-1.2,0.1c-0.2,0-0.3,0.2-0.2,0.4L160.3,19.6z"/>
<path class="st0" d="M176.5,17.5c0-3,0-3.5,0-4.1s-0.2-1-0.8-1.1c-0.2,0-0.5,0-0.7,0c-0.1,0-0.1-0.1-0.2-0.2c0-0.1,0.1-0.1,0.3-0.1
	c0.9,0,2.2,0,2.3,0s4.3,0,4.7,0s0.7-0.1,0.9-0.1s0.2-0.1,0.3-0.1s0.1,0.1,0.1,0.2c-0.1,0.3-0.1,0.6-0.1,0.9c0,0.2-0.1,1-0.1,1.3
	s-0.1,0.2-0.2,0.2s-0.2-0.1-0.2-0.2c0-0.2,0-0.5-0.1-0.7c-0.1-0.3-0.3-0.4-1.4-0.6c-0.3,0-2.6-0.1-2.9-0.1s-0.1,0.1-0.1,0.2v5.2
	c0,0.1,0,0.2,0.1,0.2s2.9,0,3.3,0s0.8-0.1,1-0.3s0.2-0.2,0.3-0.2s0.1,0,0.1,0.2c-0.1,0.3-0.1,0.7-0.2,1.1c-0.1,0.4-0.1,1.1-0.1,1.2
	s-0.1,0.4-0.2,0.4s-0.1-0.1-0.1-0.2c0-0.2,0-0.4-0.1-0.6c-0.1-0.3-0.2-0.5-1-0.6c-0.5-0.1-2.7-0.1-3-0.1c-0.1,0-0.1,0.1-0.1,0.1v1.6
	c0,0.7,0,2.9,0,3.3c0.1,1.3,0.4,1.5,2.4,1.5c0.7,0,1.3,0,2-0.2c0.5-0.2,0.9-0.8,0.9-1.3c0-0.2,0.1-0.3,0.2-0.3s0.1,0.2,0.1,0.3
	c-0.1,0.6-0.1,1.2-0.3,1.9c-0.1,0.5-0.3,0.5-1.1,0.5c-1.5,0-2.6,0-3.4-0.1s-1.4,0-1.6,0h-0.9c-0.4,0-0.8,0-1.1,0s-0.3,0-0.3-0.2
	c0-0.1,0.1-0.2,0.1-0.2c0,0,0,0,0,0c0.2,0,0.4,0,0.6-0.1c0.4-0.1,0.4-0.5,0.5-1c0.1-1.4,0.2-2.8,0.1-4.1L176.5,17.5z"/>
<path class="st0" d="M197,24.4c-1.8-1.7-2.8-4.2-2.7-6.7c0-2.3,0.9-4.5,2.5-6.2c1.4-1.4,3.4-2.4,6.9-2.4c1.1,0,2.2,0.1,3.3,0.3
	c0.8,0.2,1.5,0.3,2.3,0.3c0.2,0,0.3,0.1,0.3,0.2s-0.1,0.4-0.1,1.3s0,2-0.1,2.3s-0.1,0.5-0.2,0.5s-0.2-0.2-0.2-0.5
	c0-0.9-0.4-1.7-1-2.3c-1.3-0.9-2.9-1.3-4.5-1.3c-3,0-4.4,0.9-5.2,1.6c-1.6,1.6-2,3.6-2,5.9c-0.1,4.5,3.5,8.2,8,8.2c0,0,0.1,0,0.1,0
	c1.7,0,3-0.2,3.9-1.1c0.4-0.6,0.7-1.2,0.8-1.9c0-0.2,0.1-0.3,0.2-0.3s0.2,0.2,0.2,0.3c-0.1,1-0.3,1.9-0.5,2.9
	c-0.1,0.4-0.2,0.5-0.6,0.6c-1.3,0.4-2.7,0.6-4.1,0.5C201,26.8,198.7,26,197,24.4z"/>
<path class="st0" d="M214.4,17.5c0-3,0-3.5-0.1-4.1s-0.2-1-0.8-1.1c-0.2,0-0.5,0-0.7,0c-0.1,0-0.1-0.1-0.2-0.2
	c0-0.1,0.1-0.1,0.3-0.1c0.9,0,2.2,0,2.4,0h2.5c1.3-0.1,2.6,0.2,3.7,0.8c0.8,0.6,1.4,1.5,1.4,2.6c0,1.4-0.6,2.8-2.4,4.4
	c1.6,2,3,3.8,4.1,5c0.7,0.9,1.8,1.4,2.9,1.4c0.1,0,0.2,0.1,0.2,0.2c0,0.1-0.1,0.2-0.5,0.2h-1.2c-0.7,0.1-1.5-0.1-2.1-0.4
	c-1.1-0.8-2-1.7-2.7-2.8c-0.8-1-1.7-2.3-2.1-2.8c-0.1-0.1-0.2-0.1-0.3-0.1h-2.5c-0.1,0-0.1,0-0.1,0.1V21c0,1.9,0,3.3,0.1,4.1
	c0.1,0.6,0.2,0.9,0.8,1c0.3,0.1,0.6,0.1,0.9,0.1c0.1,0,0.1,0,0.2,0.1c0,0,0,0,0,0c0,0.1-0.1,0.2-0.3,0.2c-1.1,0-2.3-0.1-2.4-0.1
	s-1.4,0.1-2,0.1c-0.2,0-0.3,0-0.3-0.2c0-0.1,0.1-0.2,0.1-0.2c0,0,0,0,0,0c0.2,0,0.4,0,0.6-0.1c0.4-0.1,0.4-0.5,0.5-1
	c0.1-1.4,0.2-2.8,0.1-4.1L214.4,17.5z M216.2,19.2c0,0.1,0.1,0.2,0.1,0.2c0.7,0.2,1.4,0.3,2.2,0.3c0.5,0,1-0.1,1.5-0.3
	c0.9-0.7,1.3-1.8,1.2-2.9c0-2.4-1.3-3.8-3.4-3.8c-0.5,0-1,0-1.4,0.1c-0.1,0-0.2,0.1-0.2,0.2V19.2z"/>
<path class="st0" d="M229.6,17.5c0-3,0-3.5,0-4.1s-0.1-1-0.8-1.1c-0.2,0-0.5,0-0.7,0c-0.1,0-0.1-0.1-0.1-0.2c0-0.1,0.1-0.1,0.3-0.1
	c0.9,0,2.2,0,2.3,0s4.3,0,4.7,0s0.8-0.1,0.9-0.1s0.2-0.1,0.3-0.1s0.1,0.1,0.1,0.2c-0.1,0.3-0.1,0.6-0.2,0.9c0,0.2-0.1,1-0.1,1.3
	s-0.1,0.2-0.2,0.2s-0.1-0.1-0.1-0.2c0-0.2,0-0.5-0.1-0.7c-0.1-0.3-0.3-0.4-1.4-0.6c-0.3,0-2.6-0.1-2.9-0.1s-0.1,0.1-0.1,0.2v5.2
	c0,0.1,0,0.2,0.1,0.2s2.9,0,3.3,0s0.8-0.1,1-0.3s0.2-0.2,0.3-0.2s0.1,0,0.1,0.2s-0.1,0.4-0.2,1.1c0,0.4-0.1,1.1-0.1,1.2
	s0,0.4-0.2,0.4s-0.1-0.1-0.1-0.2c0-0.2,0-0.4-0.1-0.6c-0.1-0.3-0.2-0.5-1-0.6c-0.5-0.1-2.7-0.1-3-0.1c-0.1,0-0.1,0-0.1,0.1
	c0,0,0,0,0,0v1.6c0,0.7,0,2.9,0,3.3c0,1.3,0.4,1.5,2.4,1.5c0.7,0,1.3,0,2-0.2c0.5-0.2,0.9-0.8,0.9-1.3c0.1-0.2,0.1-0.3,0.2-0.3
	s0.1,0.2,0.1,0.3c-0.1,0.6-0.1,1.2-0.3,1.9c-0.1,0.5-0.3,0.5-1.1,0.5c-1.5,0-2.6,0-3.4-0.1s-1.4,0-1.6,0c0,0-0.4,0-0.9,0
	s-0.8,0-1.1,0s-0.3,0-0.3-0.2c0-0.1,0.1-0.2,0.1-0.2c0,0,0,0,0,0c0.2,0,0.4-0.1,0.6-0.1c0.4-0.1,0.4-0.5,0.5-1
	c0.1-1.4,0.1-2.8,0.1-4.1L229.6,17.5z M235.8,9c0.1,0.2,0,0.3-0.1,0.3c-0.2,0-0.5,0-0.7,0c-1.2,0.2-2.3,0.5-3.4,0.9
	c-0.1,0.1-0.2,0.1-0.3,0.1c-0.1,0-0.1-0.1-0.1-0.1c0,0,0,0,0,0c0-0.1,0-0.1,0.2-0.2c0.8-0.6,2.9-1.8,3.1-1.9
	c0.4-0.2,0.5-0.3,0.6-0.3s0.1,0,0.2,0.2S235.5,8.5,235.8,9z"/>
<path class="st0" d="M242,17.5c0-3,0-3.5,0-4.1s-0.2-1-0.8-1.1c-0.2,0-0.4,0-0.7,0c-0.1,0-0.1-0.1-0.2-0.2c0-0.1,0.1-0.1,0.3-0.1
	c0.9,0,2.2,0,2.3,0s1.5,0,2.7,0c2,0,5.6-0.2,8,2.2c1.3,1.3,2,3.1,1.9,4.9c0,2-0.8,3.9-2.1,5.4c-1.6,1.5-3.8,2.3-6,2.2
	c-0.9,0-1.9-0.1-2.8-0.1s-1.5-0.1-1.6-0.1s-0.4,0-0.8,0s-0.9,0-1.2,0s-0.3,0-0.3-0.2c0-0.1,0.1-0.2,0.2-0.2l0,0c0.2,0,0.4,0,0.6-0.1
	c0.4-0.1,0.4-0.5,0.5-1c0.1-1.4,0.1-2.8,0.1-4.1L242,17.5z M243.8,19.6c0,2,0,3.8,0,4.2c0,0.5,0.1,0.9,0.2,1.4
	c0.2,0.4,0.9,0.8,3.3,0.8c1.7,0,3.4-0.6,4.7-1.7c1.1-1.3,1.6-2.9,1.6-4.6c0-1.8-0.6-3.5-1.9-4.8c-1.9-1.9-4.1-2.1-6.4-2.1
	c-0.4,0-0.8,0-1.2,0.1c-0.2,0.1-0.2,0.2-0.2,0.4V19.6z"/>
<path class="st0" d="M261.9,20.9c0,1.9,0,3.4,0.1,4.1c0.1,0.6,0.1,0.9,0.7,1c0.3,0,0.6,0.1,0.9,0.1c0.1,0,0.2,0.1,0.2,0.1
	c0,0,0,0,0,0c0,0.1-0.1,0.2-0.3,0.2c-1.1,0-2.4-0.1-2.5-0.1s-1.4,0.1-2,0.1c-0.2,0-0.3,0-0.3-0.2c0-0.1,0.1-0.2,0.2-0.2l0,0
	c0.2,0,0.4,0,0.6-0.1c0.4-0.1,0.5-0.5,0.5-1c0.1-0.8,0.1-2.3,0.1-4.1v-3.4c0-3,0-3.5,0-4.1s-0.2-0.9-0.6-1c-0.2,0-0.4-0.1-0.6-0.1
	c-0.1,0-0.2-0.1-0.2-0.2c0-0.1,0.1-0.1,0.3-0.1c0.7,0,1.9,0,2,0s1.4,0,2,0c0.2,0,0.3,0,0.3,0.1c0,0.1-0.1,0.1-0.1,0.2
	c-0.2,0-0.3,0-0.5,0c-0.5,0.1-0.6,0.4-0.7,1.1s0,1.1,0,4.1L261.9,20.9z"/>
<path class="st0" d="M273.2,20.9c0,1.9,0,3.4,0.1,4.1c0.1,0.6,0.2,0.9,0.8,1c0.3,0.1,0.6,0.1,0.9,0.1c0.1,0,0.1,0,0.2,0.1
	c0,0,0,0,0,0c0,0.1-0.1,0.2-0.3,0.2c-1.1,0-2.3-0.1-2.5-0.1s-1.5,0.1-2,0.1c-0.2,0-0.3,0-0.3-0.2c0-0.1,0-0.1,0.1-0.1c0,0,0,0,0,0
	c0.2,0,0.4,0,0.6-0.1c0.4-0.1,0.5-0.5,0.6-1c0.1-0.8,0.1-2.3,0.1-4.1v-8.1h-2.9c-1.2,0-1.7,0.2-2,0.6c-0.1,0.2-0.2,0.4-0.3,0.6
	c0,0.2-0.1,0.2-0.2,0.2c-0.1,0-0.1-0.1-0.1-0.2c0-0.2,0.4-1.9,0.4-2.1s0.1-0.4,0.2-0.4c0.3,0.1,0.6,0.2,0.9,0.2
	c0.5,0.1,1,0.1,1.6,0.1h7.5c0.5,0,0.9,0,1.4-0.1c0.3,0,0.5-0.1,0.6-0.1s0.1,0.1,0.1,0.2c0,0.6-0.1,2-0.1,2.2s-0.1,0.2-0.2,0.2
	s-0.1-0.1-0.2-0.3v-0.2c-0.1-0.6-0.5-1-2.4-1.1h-2.5L273.2,20.9z"/>
<path class="st0" d="M287.7,11.7c4.5,0,7.9,2.7,7.9,7.2c0.1,4.2-3.3,7.8-7.5,7.8c-0.2,0-0.3,0-0.5,0c-4.1,0.2-7.5-2.9-7.8-6.9
	c0-0.2,0-0.4,0-0.6c0.1-4.2,3.5-7.5,7.7-7.5C287.6,11.7,287.6,11.7,287.7,11.7z M288.2,26c1.8,0,5.4-0.9,5.4-6.5c0-4.6-2.8-7-5.9-7
	c-3.3,0-5.7,2.1-5.7,6.2C281.9,23.2,284.6,26,288.2,26z"/>
<path class="st0" d="M68.9,50c-0.3-0.2-0.3-0.2-0.3-0.9c0-1.1,0.1-2,0.1-2.4s0.1-0.4,0.2-0.4s0.2,0.1,0.2,0.2c0,0.3,0,0.6,0.1,0.8
	c0.3,1.7,1.8,2.3,3.3,2.3c1.7,0.1,3.1-1.1,3.2-2.8c0-0.1,0-0.2,0-0.2c0-1.6-0.7-2.5-2.6-4.1l-1-0.8c-2.4-2-2.9-3.4-2.9-4.9
	c0-2.4,1.8-4.1,4.7-4.1c0.7,0,1.4,0.1,2.1,0.2c0.3,0.1,0.5,0.1,0.8,0.1c0.2,0,0.2,0,0.2,0.2s-0.1,0.9-0.1,2.4c0,0.4,0,0.5-0.2,0.5
	s-0.2-0.1-0.2-0.3c0-0.4-0.1-0.8-0.3-1.1c-0.1-0.2-0.8-1.2-2.8-1.2c-1.4-0.1-2.7,0.9-2.8,2.4c0,0.1,0,0.2,0,0.3
	c0,1.3,0.6,2.1,2.8,3.8l0.6,0.5c2.7,2.1,3.3,3.5,3.3,5.3c0,1.5-0.7,2.9-1.9,3.8c-1,0.7-2.2,1-3.4,1C70.9,50.7,69.9,50.4,68.9,50z"/>
<path class="st0" d="M85.7,36.1c0.2-0.6,0.3-0.7,0.5-0.7s0.3,0.3,0.5,0.7c0.4,0.8,3.5,8.7,4.8,11.6c0.7,1.7,1.3,2,1.7,2.1
	c0.3,0.1,0.5,0.1,0.8,0.1c0.1,0,0.2,0,0.2,0.2s-0.2,0.2-0.4,0.2s-1.8,0-3.1,0c-0.4,0-0.7,0-0.7-0.1s0-0.1,0.1-0.1
	c0.2-0.1,0.3-0.3,0.2-0.5c0,0,0,0,0-0.1L88.4,45c0-0.1-0.1-0.1-0.2-0.1h-4.6c-0.1,0-0.2,0-0.2,0.2l-1.1,3.1C82.1,48.5,82,49,82,49.4
	c0,0.4,0.3,0.5,0.7,0.5h0.2c0.2,0,0.2,0.1,0.2,0.2s-0.1,0.2-0.3,0.2c-0.5,0-1.6-0.1-1.8-0.1s-1.2,0.1-2,0.1c-0.2,0-0.4,0-0.4-0.2
	c0-0.1,0.1-0.1,0.2-0.1h0.6c0.9-0.1,1.3-0.8,1.7-1.8L85.7,36.1z M87.9,44.1c0.1,0,0.1,0,0.1-0.1l-2-5.3c-0.1-0.3-0.2-0.3-0.3,0
	L83.9,44c0,0.1,0,0.1,0.1,0.1L87.9,44.1z"/>
<path class="st0" d="M97.6,47.7c0,1.6,0.2,2.1,0.8,2.2c0.3,0.1,0.7,0.1,1,0.1c0.1,0,0.2,0.1,0.2,0.2v0c0,0.1-0.1,0.2-0.4,0.2
	c-1.1,0-1.9-0.1-2.1-0.1s-1,0.1-1.9,0.1c-0.2,0-0.3,0-0.3-0.2c0-0.1,0.1-0.1,0.1-0.1c0.3,0,0.6,0,0.8-0.1c0.5-0.1,0.6-0.7,0.6-2.4
	v-11c0-0.8,0.1-1,0.3-1s0.6,0.4,0.8,0.6s3.2,3.4,6.3,6.5c2,2,4.1,4.3,4.7,4.9l-0.2-9.6c0-1.2-0.1-1.7-0.7-1.8
	c-0.3-0.1-0.7-0.1-1-0.1c-0.1,0-0.2-0.1-0.2-0.2s0.2-0.1,0.4-0.1c0.9,0,1.8,0,2.1,0s0.9,0,1.7,0c0.2,0,0.4,0,0.4,0.1
	c0,0.1-0.1,0.2-0.2,0.2c-0.2,0-0.3,0-0.5,0c-0.7,0.1-0.7,0.5-0.7,1.7V49c0,1.3,0,1.4-0.2,1.4s-0.4-0.2-1.5-1.2
	c-0.2-0.2-3.1-3-5.2-5.2c-2.3-2.4-4.5-4.8-5.1-5.4L97.6,47.7z"/>
<path class="st0" d="M119.9,44.7c0,1.8,0,3.4,0.1,4.2c0.1,0.6,0.2,0.9,0.8,1c0.3,0.1,0.6,0.1,0.9,0.1c0.1,0,0.2,0.1,0.2,0.2
	s-0.1,0.2-0.3,0.2c-1.1,0-2.3-0.1-2.5-0.1s-1.5,0.1-2.1,0.1c-0.2,0-0.3,0-0.3-0.2s0-0.1,0.2-0.1c0.2,0,0.4,0,0.6-0.1
	c0.4-0.1,0.5-0.5,0.6-1c0.1-0.8,0.1-2.3,0.1-4.2v-8.1h-2.9c-1.2,0-1.7,0.2-2,0.6c-0.1,0.2-0.2,0.4-0.3,0.6c0,0.2-0.1,0.2-0.2,0.2
	c-0.1,0-0.1-0.1-0.1-0.1c0,0,0,0,0,0c0-0.2,0.4-1.9,0.4-2.1s0.1-0.4,0.2-0.4c0.3,0.1,0.6,0.2,0.9,0.2c0.6,0.1,1.3,0.1,1.6,0.1h7.5
	c0.5,0,0.9,0,1.4-0.1c0.3,0,0.5-0.1,0.6-0.1s0.1,0.1,0.1,0.2c0,0.6-0.1,2-0.1,2.2s-0.1,0.2-0.2,0.2s-0.1-0.1-0.2-0.3v-0.2
	c-0.1-0.6-0.5-1-2.4-1.1h-2.5L119.9,44.7z"/>
<path class="st0" d="M131.4,36.1c0.2-0.6,0.3-0.7,0.5-0.7s0.3,0.3,0.5,0.7c0.4,0.8,3.6,8.7,4.8,11.6c0.7,1.7,1.3,2,1.7,2.1
	c0.3,0.1,0.5,0.1,0.8,0.1c0.1,0,0.2,0,0.2,0.2s-0.2,0.2-0.5,0.2s-1.8,0-3.1,0c-0.4,0-0.7,0-0.7-0.1s0-0.1,0.1-0.1
	c0.2-0.1,0.3-0.3,0.2-0.4c0,0,0-0.1,0-0.1l-1.8-4.4c0-0.1-0.1-0.1-0.2-0.1h-4.6c-0.1,0-0.2,0.1-0.2,0.2l-1.2,3.1
	c-0.2,0.4-0.3,0.8-0.3,1.3c0,0.4,0.3,0.5,0.7,0.5h0.2c0.2,0,0.2,0.1,0.2,0.2s-0.1,0.2-0.3,0.2c-0.5,0-1.6-0.1-1.8-0.1
	s-1.2,0.1-2,0.1c-0.2,0-0.4,0-0.4-0.2c0-0.1,0.1-0.2,0.2-0.2h0.6c0.9-0.1,1.3-0.8,1.7-1.8L131.4,36.1z M133.7,44.1
	c0.1,0,0.1,0,0.1-0.1l-2-5.3c-0.1-0.3-0.2-0.3-0.3,0l-1.8,5.2c0,0.1,0,0.1,0.1,0.1L133.7,44.1z"/>
<path class="st0" d="M150.4,39.8c0-3.5,0-4.2,0-4.9s-0.2-1.1-1-1.3c-0.3,0-0.5-0.1-0.8-0.1c-0.1,0-0.2,0-0.2-0.1s0.1-0.2,0.4-0.2
	c0.5,0,1.1,0,1.6,0l0.9,0c0.4,0,5,0,5.6,0c0.3,0,0.7,0,1-0.1c0.1,0,0.2-0.1,0.3-0.1s0.1,0.1,0.1,0.2s-0.1,0.4-0.2,1.1
	c0,0.2-0.1,1.2-0.1,1.5c0,0.1-0.1,0.2-0.2,0.2s-0.1-0.1-0.1-0.3c0-0.3-0.1-0.6-0.2-0.9c-0.3-0.5-0.9-0.8-1.5-0.7l-3.5-0.1
	c-0.1,0-0.2,0.1-0.2,0.2v6.2c0,0.1,0,0.2,0.2,0.2h2.9c0.4,0,0.7,0,1,0c0.5,0,0.8-0.1,1-0.4c0.1-0.1,0.2-0.2,0.2-0.2s0.1,0.1,0.1,0.2
	s-0.1,0.5-0.2,1.3c-0.1,0.5-0.1,1.3-0.1,1.5s0,0.4-0.2,0.4s-0.2-0.1-0.2-0.2c0-0.3-0.1-0.6-0.1-0.8c-0.2-0.5-0.7-0.8-1.2-0.8
	c-0.6-0.1-3-0.1-3.4-0.1c-0.1,0-0.2,0-0.2,0.2v1.9c0,2.2,0,4,0.1,4.9c0.1,0.7,0.2,1.2,0.9,1.2c0.3,0,0.7,0.1,1,0.1
	c0.1,0,0.2,0.1,0.2,0.1s-0.1,0.2-0.4,0.2c-1.2,0-2.7-0.1-2.8-0.1s-1.5,0.1-2.2,0.1c-0.2,0-0.4,0-0.4-0.2s0-0.1,0.2-0.1
	c0.2,0,0.5,0,0.7-0.1c0.4-0.1,0.6-0.6,0.6-1.2c0.1-1,0.1-2.7,0.1-4.9L150.4,39.8z"/>
<path class="st0" d="M163.2,41.3c0-3,0-3.5,0-4.1s-0.2-1-0.8-1.1c-0.2,0-0.5,0-0.7,0c-0.1,0-0.1-0.1-0.2-0.2c0-0.1,0.1-0.2,0.3-0.2
	c0.9,0,2.2,0,2.3,0s4.3,0,4.7,0s0.7-0.1,0.9-0.1s0.2-0.1,0.3-0.1s0.1,0.1,0.1,0.2s-0.1,0.4-0.2,0.9c0,0.2-0.1,1-0.1,1.3
	s-0.1,0.2-0.2,0.2s-0.2-0.1-0.2-0.2c0-0.2,0-0.5-0.1-0.7c-0.1-0.3-0.3-0.5-1.4-0.6c-0.3,0-2.6-0.1-2.9-0.1s-0.1,0.1-0.1,0.2V42
	c0,0.1,0,0.2,0.1,0.2s2.9,0,3.3,0s0.8-0.1,1-0.3s0.2-0.2,0.3-0.2s0.1,0,0.1,0.2c-0.1,0.4-0.1,0.7-0.1,1.1c-0.1,0.4-0.1,1.1-0.1,1.2
	s-0.1,0.4-0.2,0.4s-0.1-0.1-0.1-0.2c0-0.2,0-0.4-0.1-0.6c-0.1-0.3-0.2-0.5-1-0.6c-0.5-0.1-2.7-0.1-3-0.1c-0.1,0-0.1,0-0.1,0.1
	c0,0,0,0,0,0v1.6c0,0.7,0,2.9,0,3.3c0,1.3,0.4,1.5,2.4,1.5c0.7,0,1.3,0,2-0.2c0.5-0.2,0.9-0.7,0.9-1.3c0-0.2,0.1-0.3,0.2-0.3
	s0.1,0.2,0.1,0.3c-0.1,0.6-0.1,1.2-0.3,1.8c-0.1,0.5-0.3,0.5-1.1,0.5c-1.5,0-2.6,0-3.4-0.1s-1.4,0-1.6,0h-0.9c-0.4,0-0.8,0-1.1,0
	s-0.3,0-0.3-0.2c0-0.1,0-0.1,0.1-0.1c0.2,0,0.4,0,0.6-0.1c0.4-0.1,0.4-0.5,0.5-1c0.1-1.4,0.1-2.8,0.1-4.2L163.2,41.3z"/>
</svg>
